<svg xmlns="http://www.w3.org/2000/svg" width="37" height="36" viewBox="0 0 37 36" fill="none">
    <g clip-path="url(#clip0_1026_2807)">
        <path d="M22.1558 7.27821V0.0710144H6.8425C6.01915 0.0710144 5.35165 0.738508 5.35165 1.56186V34.5092C5.35165 35.3325 6.01915 36 6.8425 36H30.6958C31.5191 36 32.1866 35.3325 32.1866 34.5092V10.0645H24.9421C23.4058 10.0645 22.1558 8.8146 22.1558 7.27821ZM16.1354 28.2487L12.9637 31.4205C12.7581 31.626 12.4887 31.7288 12.2194 31.7288C11.9501 31.7288 11.6806 31.6261 11.4752 31.4205L10.1584 30.1039C9.74734 29.6928 9.74734 29.0263 10.1584 28.6153C10.5694 28.2042 11.2359 28.2042 11.647 28.6153L12.2194 29.1877L14.6469 26.7602C15.0579 26.3491 15.7244 26.3491 16.1355 26.7602C16.5465 27.1712 16.5465 27.8377 16.1354 28.2487ZM16.1354 21.2314L12.9637 24.4031C12.7581 24.6086 12.4887 24.7114 12.2194 24.7114C11.9501 24.7114 11.6806 24.6087 11.4752 24.4031L10.1584 23.0865C9.74734 22.6754 9.74734 22.009 10.1584 21.5979C10.5694 21.1868 11.2359 21.1868 11.647 21.5979L12.2194 22.1703L14.6469 19.7428C15.0579 19.3318 15.7244 19.3318 16.1355 19.7428C16.5465 20.1538 16.5465 20.8203 16.1354 21.2314ZM16.1354 13.6781L12.9637 16.8498C12.7581 17.0553 12.4887 17.1581 12.2194 17.1581C11.9501 17.1581 11.6806 17.0554 11.4752 16.8498L10.1584 15.533C9.74734 15.122 9.74734 14.4555 10.1584 14.0444C10.5694 13.6334 11.2359 13.6334 11.647 14.0444L12.2194 14.6169L14.6469 12.1895C15.0579 11.7784 15.7244 11.7784 16.1355 12.1895C16.5465 12.6005 16.5465 13.267 16.1354 13.6781ZM26.6356 30.1429H19.8989C19.3176 30.1429 18.8463 29.6717 18.8463 29.0903C18.8463 28.509 19.3176 28.0377 19.8989 28.0377H26.6356C27.2169 28.0377 27.6882 28.509 27.6882 29.0903C27.6882 29.6717 27.2169 30.1429 26.6356 30.1429ZM18.8463 22.073C18.8463 21.4916 19.3176 21.0203 19.8989 21.0203H26.6055C27.1868 21.0203 27.6581 21.4916 27.6581 22.073C27.6581 22.6543 27.1868 23.1256 26.6055 23.1256H19.8989C19.3176 23.1256 18.8463 22.6543 18.8463 22.073ZM27.6581 15.0556C27.6581 15.6369 27.1869 16.1082 26.6055 16.1082H19.899C19.3176 16.1082 18.8464 15.6369 18.8464 15.0556C18.8464 14.4743 19.3176 14.003 19.899 14.003H26.6055C27.1869 14.003 27.6581 14.4743 27.6581 15.0556Z" fill="#FF792F"/>
        <path d="M24.261 7.27822C24.261 7.65379 24.5666 7.95932 24.9422 7.95932H32.2889L24.261 0V7.27822Z" fill="#FF792F"/>
    </g>
    <defs>
        <clipPath id="clip0_1026_2807">
            <rect width="36" height="36" fill="white" transform="translate(0.820312)"/>
        </clipPath>
    </defs>
</svg>