<svg xmlns="http://www.w3.org/2000/svg" width="40" height="40" viewBox="0 0 40 40" fill="none">
    <circle cx="20" cy="20" r="20" fill="#FF792F"/>
    <path d="M17.696 21.248H15.32C14.936 21.248 14.816 21.104 14.816 20.744V17.84C14.816 17.456 14.96 17.336 15.32 17.336H17.696V15.224C17.696 14.264 17.864 13.3519 18.344 12.512C18.848 11.6479 19.568 11.072 20.48 10.736C21.08 10.52 21.68 10.424 22.328 10.424H24.68C25.016 10.424 25.16 10.568 25.16 10.904V13.64C25.16 13.976 25.016 14.12 24.68 14.12C24.032 14.12 23.384 14.12 22.736 14.144C22.088 14.144 21.752 14.456 21.752 15.128C21.728 15.848 21.752 16.544 21.752 17.288H24.536C24.92 17.288 25.064 17.432 25.064 17.816V20.72C25.064 21.104 24.944 21.224 24.536 21.224H21.752V29.048C21.752 29.4559 21.632 29.6 21.2 29.6H18.2C17.84 29.6 17.696 29.456 17.696 29.096V21.248Z" fill="white"/>
</svg>