<svg xmlns="http://www.w3.org/2000/svg" width="37" height="36" viewBox="0 0 37 36" fill="none">
    <path d="M9.80324 22.57H12.0932V24.86H9.80324V22.57Z" fill="#FF792F"/>
    <path fill-rule="evenodd" clip-rule="evenodd" d="M33.5932 3.34C33.171 2.91585 32.6693 2.57917 32.1167 2.34923C31.5642 2.11929 30.9717 2.00061 30.3732 2H7.51324C6.3012 2 5.1388 2.48148 4.28176 3.33852C3.42472 4.19556 2.94324 5.35796 2.94324 6.57V29.43C2.94324 30.642 3.42472 31.8044 4.28176 32.6615C5.1388 33.5185 6.3012 34 7.51324 34H30.3732C31.5837 33.9947 32.743 33.5116 33.5989 32.6557C34.4548 31.7998 34.938 30.6404 34.9432 29.43V6.57C34.9376 5.35727 34.4523 4.19604 33.5932 3.34ZM20.0832 13.43H26.9432V15.72H20.0832V13.43ZM14.3732 24.86C14.3732 25.4673 14.132 26.0498 13.7025 26.4793C13.2731 26.9087 12.6906 27.15 12.0832 27.15H9.80324C9.19589 27.15 8.61342 26.9087 8.18396 26.4793C7.7545 26.0498 7.51324 25.4673 7.51324 24.86V22.57C7.51324 21.9627 7.7545 21.3802 8.18396 20.9507C8.61342 20.5213 9.19589 20.28 9.80324 20.28H12.0932C12.7006 20.28 13.2831 20.5213 13.7125 20.9507C14.142 21.3802 14.3832 21.9627 14.3832 22.57L14.3732 24.86ZM11.3732 14.86C11.1561 15.0706 10.8657 15.1889 10.5632 15.19C10.2611 15.1868 9.97156 15.0688 9.75324 14.86L7.48324 12.53L9.10324 10.9L10.5732 12.39L13.1932 9.76L14.8132 11.38L11.3732 14.86ZM26.9432 27.14H20.0832V24.86H26.9432V27.14ZM30.3732 22.57H20.0832V20.29H30.3732V22.57ZM30.3732 11.14H20.0832V8.86H30.3732V11.14Z" fill="#FF792F"/>
</svg>