<svg xmlns="http://www.w3.org/2000/svg" width="36" height="36" viewBox="0 0 36 36" fill="none">
    <path d="M19.0431 5.83762L32.7198 13.7846C32.8412 13.855 32.942 13.9561 33.0121 14.0777C33.0822 14.1993 33.1191 14.3373 33.1191 14.4776C33.1191 14.618 33.0822 14.7559 33.0121 14.8775C32.942 14.9992 32.8412 15.1002 32.7198 15.1706L19.0431 23.1176C18.6306 23.3575 18.1619 23.4839 17.6847 23.4839C17.2075 23.4839 16.7388 23.3575 16.3263 23.1176L2.64965 15.1706C2.5282 15.1002 2.42739 14.9992 2.35731 14.8775C2.28722 14.7559 2.25034 14.618 2.25034 14.4776C2.25034 14.3373 2.28722 14.1993 2.35731 14.0777C2.42739 13.9561 2.5282 13.855 2.64965 13.7846L16.3263 5.83762C16.739 5.59828 17.2076 5.47223 17.6847 5.47223C18.1618 5.47223 18.6304 5.59828 19.0431 5.83762Z" fill="#FF792F"/>
    <path d="M19.0431 5.83762L32.7198 13.7846C32.8412 13.855 32.942 13.9561 33.0121 14.0777C33.0822 14.1993 33.1191 14.3373 33.1191 14.4776C33.1191 14.618 33.0822 14.7559 33.0121 14.8775C32.942 14.9992 32.8412 15.1002 32.7198 15.1706L19.0431 23.1176C18.6306 23.3575 18.1619 23.4839 17.6847 23.4839C17.2075 23.4839 16.7388 23.3575 16.3263 23.1176L2.64965 15.1706C2.5282 15.1002 2.42739 14.9992 2.35731 14.8775C2.28722 14.7559 2.25034 14.618 2.25034 14.4776C2.25034 14.3373 2.28722 14.1993 2.35731 14.0777C2.42739 13.9561 2.5282 13.855 2.64965 13.7846L16.3263 5.83762C16.739 5.59828 17.2076 5.47223 17.6847 5.47223C18.1618 5.47223 18.6304 5.59828 19.0431 5.83762Z" fill="#FF792F"/>
    <path d="M32.715 15.1766L28.0687 17.8766L19.0462 23.1191C18.2025 23.6028 17.1675 23.6028 16.3237 23.1191L7.30124 17.8766L2.64374 15.1766C2.52273 15.1047 2.4225 15.0027 2.35287 14.8804C2.28325 14.7581 2.24664 14.6198 2.24664 14.4791C2.24664 14.3383 2.28325 14.2 2.35287 14.0777C2.4225 13.9555 2.52273 13.8534 2.64374 13.7816L16.3237 5.83906C17.1675 5.35531 18.2025 5.35531 19.0462 5.83906L32.715 13.7816C33.255 14.0966 33.255 14.8616 32.715 15.1766Z" fill="#FF792F"/>
    <path d="M19.8945 24.5779C19.2161 24.966 18.4556 25.1696 17.685 25.1696C16.9144 25.1696 16.1539 24.966 15.4845 24.5835L7.30124 19.8281V24.0525C7.30124 24.9975 7.79624 25.8637 8.61749 26.3362L14.3212 29.6325C15.3434 30.2186 16.5011 30.5269 17.6794 30.5269C18.8576 30.5269 20.0153 30.2186 21.0375 29.6325L26.7525 26.3362C27.5625 25.8637 28.0687 24.9975 28.0687 24.0525V19.8281L19.8945 24.5779ZM32.9625 25.5454V16.9841L30.9364 18.1609V25.5442C30.6178 25.7607 30.377 26.0735 30.2493 26.4369C30.1217 26.8002 30.1138 27.1949 30.2269 27.5631C30.34 27.9312 30.5682 28.2534 30.8779 28.4823C31.1876 28.7113 31.5625 28.8349 31.9476 28.8351C32.3327 28.8354 32.7078 28.7121 33.0177 28.4835C33.3277 28.2549 33.5562 27.933 33.6697 27.565C33.7832 27.197 33.7758 26.8023 33.6485 26.4388C33.5212 26.0753 33.2808 25.7622 32.9625 25.5454Z" fill="#FF792F"/>
</svg>