<svg xmlns="http://www.w3.org/2000/svg" width="40" height="40" viewBox="0 0 40 40" fill="none">
    <circle cx="20" cy="20" r="20" fill="#FF792F"/>
    <path d="M31.3457 14.2799C31.0731 13.2599 30.2696 12.4564 29.2495 12.1838C27.4007 11.6882 19.9866 11.6882 19.9866 11.6882C19.9866 11.6882 12.5724 11.6882 10.7236 12.1838C9.70353 12.4564 8.90005 13.2599 8.62739 14.2799C8.13187 16.1287 8.13187 19.9865 8.13187 19.9865C8.13187 19.9865 8.13187 23.8443 8.62739 25.6931C8.90005 26.7131 9.70353 27.5166 10.7236 27.7893C12.5724 28.2848 19.9866 28.2848 19.9866 28.2848C19.9866 28.2848 27.4007 28.2848 29.2495 27.7893C30.2696 27.5166 31.0731 26.7131 31.3457 25.6931C31.8412 23.8443 31.8412 19.9865 31.8412 19.9865C31.8412 19.9865 31.8412 16.1287 31.3457 14.2799Z" fill="white"/>
    <path d="M17.6156 23.5429L23.7748 19.9865L17.6156 16.4301V23.5429Z" fill="#FF792F"/>
</svg>