<svg width="169" height="35" viewBox="0 0 169 35" fill="none" xmlns="http://www.w3.org/2000/svg">
    <path d="M153.06 20C152.963 20 152.818 19.9903 152.625 19.971C152.432 19.9323 152.2 19.9033 151.929 19.884L151.32 19.739C151.223 19.7197 151.146 19.7003 151.088 19.681C151.049 19.6423 151.04 19.6133 151.059 19.594C151.059 19.0913 151.03 18.4243 150.972 17.593C150.972 17.303 150.962 17.0517 150.943 16.839C150.924 16.607 150.904 16.4137 150.885 16.259L150.827 15.012C150.827 14.6833 150.808 14.2677 150.769 13.765L150.74 12.866C150.74 12.1313 150.73 11.561 150.711 11.155C150.692 10.749 150.682 9.89833 150.682 8.603C150.682 7.385 150.692 6.12833 150.711 4.833C150.73 3.53767 150.788 2.31 150.885 1.15C150.885 0.937333 151.117 0.763333 151.581 0.627999C151.871 0.589333 152.354 0.57 153.031 0.57C154.597 0.57 155.747 0.540999 156.482 0.482999C158.763 0.444333 160.484 0.425 161.644 0.425H162.92C164.505 0.463666 165.723 0.521666 166.574 0.598999C166.883 0.598999 167.106 0.966332 167.241 1.701C167.299 1.83633 167.367 2.18433 167.444 2.745C167.502 3.035 167.579 3.39267 167.676 3.818C167.695 3.934 167.695 4.05 167.676 4.166C167.676 4.26267 167.676 4.32067 167.676 4.34C167.657 4.53333 167.55 4.63 167.357 4.63C167.28 4.61067 167.164 4.601 167.009 4.601C166.197 4.601 165.201 4.66867 164.022 4.804L162.485 4.92C161.847 4.99733 161.344 5.04567 160.977 5.065C160.919 5.065 160.842 5.181 160.745 5.413C160.668 5.66433 160.581 6.24433 160.484 7.153L160.426 7.878C160.426 8.12933 160.455 8.29367 160.513 8.371C160.571 8.429 160.697 8.458 160.89 8.458H163.471C164.225 8.458 165.085 8.50633 166.052 8.603H166.4C166.651 8.661 166.806 8.75767 166.864 8.893C166.941 9.009 166.99 9.13467 167.009 9.27L167.125 11.851V11.938C167.125 12.2667 166.777 12.46 166.081 12.518C165.675 12.6147 164.902 12.663 163.761 12.663C162.775 12.663 162.137 12.6533 161.847 12.634C161.286 12.634 160.948 12.6437 160.832 12.663C160.619 12.721 160.484 12.837 160.426 13.011C160.368 13.1657 160.339 13.4363 160.339 13.823C160.339 14.0743 160.32 14.432 160.281 14.896C160.262 15.128 160.252 15.4953 160.252 15.998C161.509 15.998 162.437 15.9787 163.036 15.94C163.693 15.882 164.621 15.853 165.82 15.853C165.897 15.853 165.975 15.9207 166.052 16.056C166.149 16.2493 166.303 16.6843 166.516 17.361C166.632 17.7477 166.748 18.231 166.864 18.811C166.903 18.9463 166.922 19.0913 166.922 19.246C166.922 19.652 166.729 19.855 166.342 19.855C165.839 19.855 165.163 19.8743 164.312 19.913C163.867 19.9517 163.171 19.971 162.224 19.971C160.194 19.971 158.667 19.9807 157.642 20H153.06Z" fill="#FF0000"/>
    <path d="M53.08 20.319C52.2293 19.4877 51.5043 18.6467 50.905 17.796C50.4797 17.2353 49.8223 16.2397 48.933 14.809L48.44 14.026C48.4207 14.0067 48.4013 13.997 48.382 13.997C48.382 13.9777 48.382 13.968 48.382 13.968H48.237L48.121 14.026C48.1017 14.2773 48.092 14.954 48.092 16.056C48.092 16.7713 48.0533 17.6123 47.976 18.579L47.947 19.449C47.8697 19.6617 47.8213 19.768 47.802 19.768H47.599H47.512C45.3853 19.9227 43.8387 20 42.872 20H42.437H41.886C41.6733 20 41.5187 19.9903 41.422 19.971H41.219L40.32 19.681L40.262 19.478C40.2233 19.478 40.1943 19.4393 40.175 19.362C40.175 19.2847 40.175 19.2267 40.175 19.188C40.117 18.376 40.0687 17.7863 40.03 17.419C39.9527 16.375 39.9043 15.6113 39.885 15.128C39.8463 14.664 39.827 14.3643 39.827 14.229L39.682 12.634L39.653 11.764C39.6337 11.59 39.624 11.3483 39.624 11.039V10.778C39.6627 10.6813 39.682 10.5267 39.682 10.314V9.821C39.7013 9.74367 39.711 9.65667 39.711 9.56L39.682 9.328V9.038C39.682 8.90267 39.6627 8.79633 39.624 8.719V8.545L39.653 7.82C39.6723 7.68467 39.682 7.48167 39.682 7.211C39.7207 6.631 39.74 6.08 39.74 5.558V5.268C39.7207 5.21 39.711 5.08433 39.711 4.891V4.485V4.195C39.653 4.137 39.624 4.079 39.624 4.021C39.624 3.75033 39.8657 3.557 40.349 3.441C40.6003 3.36367 40.958 3.325 41.422 3.325C45.946 3.325 49.3293 3.47967 51.572 3.789C53.776 4.09833 55.3227 4.63 56.212 5.384C56.5987 5.75133 56.8693 6.18633 57.024 6.689C57.198 7.17233 57.285 7.75233 57.285 8.429C57.285 9.51167 56.9757 10.4203 56.357 11.155C55.951 11.561 55.4773 11.8993 54.936 12.17C55.052 12.46 55.3903 13.04 55.951 13.91C56.067 14.0453 56.1733 14.1903 56.27 14.345C56.386 14.4997 56.5213 14.664 56.676 14.838C57.0433 15.3407 57.4687 15.8917 57.952 16.491C57.9713 16.5683 58.0487 16.7327 58.184 16.984C58.2807 17.0227 58.329 17.071 58.329 17.129C58.3483 17.1677 58.3387 17.2257 58.3 17.303C58.1453 17.535 57.691 17.8733 56.937 18.318C56.8403 18.4147 56.7243 18.5113 56.589 18.608C56.2023 18.9173 55.6707 19.2363 54.994 19.565C54.3753 19.8937 53.8437 20.1257 53.399 20.261C53.225 20.3577 53.1187 20.377 53.08 20.319ZM47.802 10.111C48.0533 10.111 48.3917 10.0627 48.817 9.966C49.223 9.85 49.513 9.734 49.687 9.618C49.977 9.444 50.2283 9.25067 50.441 9.038C50.6537 8.78667 50.76 8.49667 50.76 8.168C50.76 7.62667 50.5957 7.19167 50.267 6.863C49.977 6.631 49.6193 6.515 49.194 6.515H47.947C47.947 6.76633 47.9277 7.16267 47.889 7.704L47.86 8.313C47.8213 8.69967 47.802 9.299 47.802 10.111ZM61.722 20.029C61.3547 20.029 61.2097 19.7003 61.287 19.043C61.287 18.811 61.3353 18.55 61.432 18.26C61.432 18.1247 61.4417 18.0183 61.461 17.941C61.4803 17.8443 61.49 17.767 61.49 17.709C61.9347 15.6017 62.4277 13.5233 62.969 11.474L64.941 3.76C64.941 3.72133 64.97 3.673 65.028 3.615C65.086 3.557 65.144 3.50867 65.202 3.47H65.405C65.637 3.47 65.8207 3.441 65.956 3.383C66.072 3.36367 66.275 3.354 66.565 3.354C67.029 3.354 67.377 3.36367 67.609 3.383C67.957 3.441 68.3147 3.47 68.682 3.47L70.19 3.441C70.3447 3.40233 70.5283 3.383 70.741 3.383L72.017 3.325H72.974C73.3413 3.325 73.699 3.33467 74.047 3.354H74.859C75.0523 3.37333 75.3327 3.383 75.7 3.383H76.802C76.86 3.383 76.918 3.39267 76.976 3.412C77.034 3.43133 77.0823 3.45067 77.121 3.47C77.1983 3.50867 77.295 3.528 77.411 3.528H77.672C77.8073 3.62467 77.875 3.72133 77.875 3.818L79.934 11.474C80.572 13.9293 81.0747 16.0077 81.442 17.709C81.442 17.8057 81.471 17.9893 81.529 18.26C81.6063 18.6467 81.645 18.956 81.645 19.188C81.645 19.3233 81.6257 19.507 81.587 19.739C81.4903 19.9323 81.355 20.029 81.181 20.029H80.862C80.6107 20.029 80.4173 20.0193 80.282 20H79.644H79.035H78.542C78.4067 20 78.3293 19.9903 78.31 19.971H76.715L76.686 19.913C76.6473 19.8743 76.5893 19.855 76.512 19.855L76.425 19.913C76.425 19.9517 76.4057 19.971 76.367 19.971H76.28H76.077C75.9803 19.9323 75.8063 19.913 75.555 19.913C75.091 19.8743 74.7043 19.855 74.395 19.855C74.1823 19.4103 73.931 18.434 73.641 16.926C73.235 16.984 72.771 17.013 72.249 17.013H71.495H70.77C70.6927 17.303 70.6443 17.5447 70.625 17.738C70.6057 17.8347 70.5283 18.1633 70.393 18.724C70.2577 19.2847 70.132 19.6617 70.016 19.855L69.842 19.913C69.784 19.9323 69.7357 19.9517 69.697 19.971C69.6583 19.971 69.639 19.971 69.639 19.971H69.581C69.465 19.971 69.3877 19.9517 69.349 19.913C69.2717 19.8743 69.2233 19.855 69.204 19.855L68.102 19.913H67.29C67.1933 19.9323 67.116 19.9517 67.058 19.971C67 19.971 66.9613 19.971 66.942 19.971H64.622H64.39C64.216 19.9903 63.8583 20 63.317 20H62.621C62.505 20.0193 62.3213 20.029 62.07 20.029H61.722ZM73.38 13.823C73.264 13.1657 73.1963 12.779 73.177 12.663L72.945 11.271C72.9063 11.0003 72.8677 10.7587 72.829 10.546C72.7903 10.314 72.7613 10.1013 72.742 9.908C72.684 9.676 72.6357 9.46333 72.597 9.27C72.5777 9.05733 72.5487 8.864 72.51 8.69C72.4907 8.574 72.4713 8.429 72.452 8.255C72.4327 8.06167 72.4037 7.92633 72.365 7.849L72.307 7.501C72.307 7.42367 72.2877 7.356 72.249 7.298L72.22 7.124C72.1813 7.24 72.162 7.298 72.162 7.298V7.414V7.501C72.162 7.52033 72.1523 7.559 72.133 7.617C72.1137 7.65567 72.0943 7.733 72.075 7.849C72.0557 7.94567 72.0363 8.07133 72.017 8.226C71.9977 8.36133 71.9687 8.516 71.93 8.69L71.727 9.879L71.495 11.213L71.408 11.851C71.3693 12.0057 71.3307 12.257 71.292 12.605C71.118 13.475 71.0407 13.8713 71.06 13.794H72.336C72.3553 13.7747 72.3843 13.7553 72.423 13.736C72.4617 13.6973 72.4907 13.678 72.51 13.678H72.597C72.6937 13.678 72.771 13.6877 72.829 13.707C72.9063 13.7263 72.974 13.7457 73.032 13.765C73.148 13.8037 73.264 13.823 73.38 13.823ZM93.4079 20.696C91.7066 20.696 90.3049 20.5413 89.2029 20.232C87.7336 19.826 86.5929 19.043 85.7809 17.883C84.8722 16.5877 84.4179 14.7027 84.4179 12.228C84.4179 10.72 84.6209 9.36667 85.0269 8.168C85.4329 6.95 86.0226 5.92533 86.7959 5.094C87.5692 4.282 88.4682 3.66333 89.4929 3.238C90.5176 2.81267 91.6292 2.6 92.8279 2.6C94.8386 2.6 96.9266 3.22833 99.0919 4.485L98.7149 7.733L98.0479 7.588C97.9706 7.56867 97.6709 7.501 97.1489 7.385C96.6269 7.269 96.1532 7.211 95.7279 7.211C94.8192 7.211 94.1426 7.52033 93.6979 8.139C93.1179 8.91233 92.8279 10.1593 92.8279 11.88C92.8279 13.2913 93.0309 14.3547 93.4369 15.07C93.8236 15.6693 94.3456 15.969 95.0029 15.969C95.4669 15.969 96.0082 15.8143 96.6269 15.505C97.2262 15.215 97.8062 14.8767 98.3669 14.49L98.6569 18.608C97.9802 19.246 97.1489 19.7487 96.1629 20.116C95.2736 20.5027 94.3552 20.696 93.4079 20.696ZM110.511 20.087H109.177H107.669H105.755C105.581 19.8163 105.465 19.3233 105.407 18.608C105.329 17.97 105.291 17.042 105.291 15.824L105.32 12.634C105.339 11.8607 105.349 10.633 105.349 8.951L105.262 8.864H102.391C101.965 8.864 101.685 8.38067 101.55 7.414C101.472 6.892 101.434 6.12833 101.434 5.123V4.746C101.472 4.61067 101.492 4.398 101.492 4.108V3.528L101.521 3.296L101.637 3.18L102.159 3.209H102.739C103.589 3.209 104.237 3.19933 104.682 3.18H106.567H107.089H108.075H109.322H110.569C110.82 3.19933 111.178 3.209 111.642 3.209H112.367C112.444 3.17033 112.57 3.151 112.744 3.151C112.879 3.11233 113.005 3.093 113.121 3.093C113.488 3.093 113.768 3.11233 113.962 3.151C114.348 3.18967 114.638 3.209 114.832 3.209L115.586 3.18H116.717C117.297 3.18 117.693 3.18967 117.906 3.209L118.312 3.238C118.331 3.25733 118.36 3.28633 118.399 3.325C118.437 3.34433 118.457 3.36367 118.457 3.383V8.313C118.457 8.429 118.389 8.55467 118.254 8.69C118.138 8.82533 118.022 8.91233 117.906 8.951C117.268 8.81567 116.436 8.748 115.412 8.748H114.31C114.02 8.748 113.826 9.11533 113.73 9.85C113.691 10.0627 113.672 10.372 113.672 10.778V11.648C113.672 12.0347 113.681 12.3247 113.701 12.518V13.33C113.701 14.1227 113.662 14.8573 113.585 15.534C113.546 16.0367 113.527 16.404 113.527 16.636C113.488 16.868 113.469 17.187 113.469 17.593C113.469 18.173 113.449 18.6563 113.411 19.043C113.391 19.6423 113.169 19.9613 112.744 20C112.28 20.058 112.009 20.087 111.932 20.087H110.511ZM122.12 20.377C121.772 20.377 121.55 20.029 121.453 19.333C121.395 19.043 121.366 18.782 121.366 18.55C121.366 18.2407 121.356 18.0473 121.337 17.97C121.318 17.4093 121.269 16.52 121.192 15.302L121.105 14.2C120.989 12.4987 120.931 11.242 120.931 10.43V3.383C120.931 3.22833 121.105 3.11233 121.453 3.035C121.646 2.977 121.917 2.948 122.265 2.948C122.497 2.948 122.748 2.96733 123.019 3.006C123.29 3.02533 123.493 3.035 123.628 3.035C123.918 3.07367 124.372 3.093 124.991 3.093L125.107 3.006H126.383C126.441 3.064 126.509 3.093 126.586 3.093H126.702C126.721 3.07367 126.77 3.064 126.847 3.064C126.886 3.04467 126.944 3.035 127.021 3.035C127.04 3.01567 127.06 3.006 127.079 3.006C127.098 3.006 127.108 3.006 127.108 3.006C127.166 3.006 127.234 3.02533 127.311 3.064C127.388 3.08333 127.446 3.093 127.485 3.093H129.631L129.718 8.081C129.718 8.10033 129.699 8.168 129.66 8.284C129.641 8.38067 129.621 8.516 129.602 8.69C129.544 9.386 129.515 9.937 129.515 10.343V15.998L129.428 17.1C129.37 17.5833 129.351 17.9797 129.37 18.289C129.37 18.695 129.351 19.0237 129.312 19.275C129.293 19.507 129.235 19.6907 129.138 19.826C129.022 19.9613 128.838 20.029 128.587 20.029L128.558 20L128.471 19.971C128.432 19.971 128.413 19.9807 128.413 20H128.268C128.152 20.0387 128.084 20.0677 128.065 20.087C127.968 20.087 127.746 20.058 127.398 20L126.992 19.971C126.895 19.971 126.837 20.0097 126.818 20.087H124.643H124.237L123.483 20.232L122.787 20.319L122.12 20.377ZM141.496 20.696C139.794 20.696 138.393 20.5413 137.291 20.232C135.821 19.826 134.681 19.043 133.869 17.883C132.96 16.5877 132.506 14.7027 132.506 12.228C132.506 10.72 132.709 9.36667 133.115 8.168C133.521 6.95 134.11 5.92533 134.884 5.094C135.657 4.282 136.556 3.66333 137.581 3.238C138.605 2.81267 139.717 2.6 140.916 2.6C142.926 2.6 145.014 3.22833 147.18 4.485L146.803 7.733L146.136 7.588C146.058 7.56867 145.759 7.501 145.237 7.385C144.715 7.269 144.241 7.211 143.816 7.211C142.907 7.211 142.23 7.52033 141.786 8.139C141.206 8.91233 140.916 10.1593 140.916 11.88C140.916 13.2913 141.119 14.3547 141.525 15.07C141.911 15.6693 142.433 15.969 143.091 15.969C143.555 15.969 144.096 15.8143 144.715 15.505C145.314 15.215 145.894 14.8767 146.455 14.49L146.745 18.608C146.068 19.246 145.237 19.7487 144.251 20.116C143.361 20.5027 142.443 20.696 141.496 20.696Z" fill="white"/>
    <path d="M4.131 33.9541C3.6108 33.9541 3.2742 33.6175 3.1212 32.9443C2.9682 32.6077 2.8917 31.9957 2.8917 31.1083C2.8917 28.4461 2.8611 26.0746 2.7999 23.9938C2.7081 20.995 2.6622 17.8279 2.6622 14.4925V4.3945C2.6622 4.1191 2.7846 3.859 3.0294 3.6142C3.3048 3.3388 3.5802 3.2011 3.8556 3.2011L9.1341 3.247C10.1133 3.2776 11.3985 3.2929 12.9897 3.2929C15.2847 3.2929 17.0595 3.2776 18.3141 3.247L20.0124 3.2011C21.8484 3.1399 23.3631 3.1093 24.5565 3.1093C26.4843 3.1093 28.3203 3.3847 30.0645 3.9355C32.1147 4.5475 33.7824 5.6032 35.0676 7.1026C36.5058 8.7244 37.2249 10.9123 37.2249 13.6663C37.2249 18.3175 36.0468 21.6835 33.6906 23.7643C31.6098 25.7227 28.5039 26.7019 24.3729 26.7019H18.0846C18.1152 27.4057 18.1305 28.1554 18.1305 28.951C18.1305 29.2264 18.1152 29.563 18.0846 29.9608C18.0846 30.328 18.0846 30.8329 18.0846 31.4755C18.0846 32.4853 17.8704 33.1279 17.442 33.4033C17.1054 33.6787 16.4781 33.8164 15.5601 33.8164C14.2137 33.8164 13.2804 33.8317 12.7602 33.8623C10.6488 33.8623 8.9658 33.8929 7.7112 33.9541H4.131ZM20.5632 21.1939C21.2058 21.1939 21.6801 20.5819 21.9861 19.3579C22.2309 18.5317 22.4145 17.3077 22.5369 15.6859C22.5981 14.7985 22.6287 13.804 22.6287 12.7024V12.1975C22.6287 11.7079 22.5522 10.9735 22.3992 9.9943C22.2768 9.4435 22.1391 9.0151 21.9861 8.7091C21.8331 8.3725 21.6342 8.0971 21.3894 7.8829C21.1446 7.6075 20.8692 7.4698 20.5632 7.4698C20.4102 7.4698 20.2725 7.531 20.1501 7.6534C20.0583 7.7758 19.9665 7.9288 19.8747 8.1124C19.5381 8.6632 19.2321 9.8872 18.9567 11.7844C18.8649 12.3352 18.7884 13.1614 18.7272 14.263C18.5742 15.946 18.4977 18.1951 18.4977 21.0103C18.4977 21.0103 18.513 21.0256 18.5436 21.0562C18.5742 21.0868 18.6354 21.1174 18.7272 21.148L19.278 21.1939H20.5632Z" fill="#FF792F"/>
    <path d="M42.3467 34.3965C42.1475 34.2969 42.0098 34.0918 41.9336 33.7812C41.8633 33.4707 41.8398 33.1074 41.8633 32.6914C41.8867 32.2754 41.9512 31.8359 42.0566 31.373C42.168 30.9102 42.3086 30.4766 42.4785 30.0723C42.6543 29.668 42.8535 29.3223 43.0762 29.0352C43.3047 28.7539 43.5479 28.5811 43.8057 28.5166C43.8115 28.4814 43.8174 28.4258 43.8232 28.3496C43.8291 28.2676 43.835 28.1826 43.8408 28.0947C43.8467 28.0068 43.8525 27.9248 43.8584 27.8486C43.8643 27.7666 43.8672 27.708 43.8672 27.6729C43.873 27.5439 43.876 27.3799 43.876 27.1807C43.876 26.9756 43.876 26.7793 43.876 26.5918C43.876 26.3984 43.876 26.2344 43.876 26.0996C43.876 25.959 43.873 25.8857 43.8672 25.8799L43.8057 25.8184C43.7588 25.9004 43.665 26.041 43.5244 26.2402C43.3838 26.4395 43.2168 26.6562 43.0234 26.8906C42.8301 27.125 42.6162 27.3594 42.3818 27.5938C42.1475 27.8223 41.9102 28.0127 41.6699 28.165C41.4297 28.3115 41.1953 28.3965 40.9668 28.4199C40.7383 28.4375 40.5303 28.3525 40.3428 28.165C40.249 28.0771 40.1846 27.9424 40.1494 27.7607C40.1201 27.5732 40.1055 27.3682 40.1055 27.1455C40.1113 26.917 40.1289 26.6797 40.1582 26.4336C40.1934 26.1816 40.2314 25.9443 40.2725 25.7217C40.3135 25.4932 40.3516 25.291 40.3867 25.1152C40.4277 24.9336 40.457 24.7988 40.4746 24.7109C40.5039 24.6406 40.5479 24.5967 40.6064 24.5791C40.6709 24.5557 40.7324 24.5527 40.791 24.5703C40.8496 24.582 40.8965 24.6143 40.9316 24.667C40.9727 24.7139 40.9844 24.7725 40.9668 24.8428C40.9023 25.0889 40.8438 25.3262 40.791 25.5547C40.7441 25.7832 40.7031 26.0117 40.668 26.2402C40.6387 26.4688 40.6182 26.7002 40.6064 26.9346C40.6006 27.1689 40.6064 27.415 40.624 27.6729C40.7412 27.8311 40.8848 27.9014 41.0547 27.8838C41.2246 27.8604 41.4062 27.7871 41.5996 27.6641C41.793 27.5352 41.9893 27.3682 42.1885 27.1631C42.3877 26.958 42.5723 26.75 42.7422 26.5391C42.9121 26.3281 43.0586 26.1318 43.1816 25.9502C43.3105 25.7627 43.4014 25.625 43.4541 25.5371C43.5068 25.4492 43.5479 25.3496 43.5771 25.2383C43.6123 25.127 43.6475 25.0186 43.6826 24.9131C43.7236 24.8018 43.7676 24.6963 43.8145 24.5967C43.8672 24.4971 43.9346 24.418 44.0166 24.3594L44.2891 24.6318V28.2354C44.3184 28.2412 44.3857 28.2383 44.4912 28.2266C44.6025 28.2148 44.6992 28.209 44.7812 28.209C44.8633 28.209 44.9102 28.2266 44.9219 28.2617C44.9395 28.291 44.8691 28.3525 44.7109 28.4463C44.6289 28.4932 44.5469 28.543 44.4648 28.5957C44.3887 28.6426 44.3066 28.6836 44.2188 28.7188C44.166 29.2168 44.1162 29.6533 44.0693 30.0283C44.0225 30.4092 43.9697 30.7725 43.9111 31.1182C43.8525 31.4639 43.7822 31.8184 43.7002 32.1816C43.6182 32.5449 43.5156 32.9609 43.3926 33.4297C43.3457 33.5352 43.293 33.6582 43.2344 33.7988C43.1816 33.9453 43.1143 34.0742 43.0322 34.1855C42.9561 34.3027 42.8623 34.3848 42.751 34.4316C42.6396 34.4844 42.5049 34.4727 42.3467 34.3965ZM42.6279 33.8428C42.6865 33.8838 42.7568 33.8076 42.8389 33.6143C42.9209 33.4209 43.0029 33.1602 43.085 32.832C43.1729 32.5098 43.2549 32.1494 43.3311 31.751C43.4131 31.3525 43.4834 30.9688 43.542 30.5996C43.6064 30.2305 43.6562 29.9053 43.6914 29.624C43.7266 29.3428 43.7412 29.1553 43.7354 29.0615C43.4717 29.29 43.2402 29.5537 43.041 29.8525C42.8418 30.1572 42.6777 30.4795 42.5488 30.8193C42.4258 31.165 42.3408 31.5166 42.2939 31.874C42.2471 32.2373 42.2412 32.5947 42.2764 32.9463C42.2822 32.999 42.291 33.0664 42.3027 33.1484C42.3203 33.2363 42.335 33.3213 42.3467 33.4033C42.3643 33.4854 42.3789 33.5557 42.3906 33.6143C42.4023 33.6729 42.4111 33.7051 42.417 33.7109L42.6279 33.8428ZM50.3184 28.9297C50.1484 28.8008 50.0225 28.6602 49.9404 28.5078C49.8584 28.3496 49.8027 28.1855 49.7734 28.0156C49.75 27.8398 49.75 27.6611 49.7734 27.4795C49.8027 27.292 49.8438 27.1045 49.8965 26.917C49.9316 26.7998 49.9639 26.6592 49.9932 26.4951C50.0283 26.3311 50.0693 26.167 50.1162 26.0029C50.1631 25.833 50.2188 25.6777 50.2832 25.5371C50.3477 25.3906 50.4268 25.2764 50.5205 25.1943C50.5791 25.1416 50.6553 25.1035 50.749 25.0801C50.8428 25.0508 50.9395 25.0361 51.0391 25.0361C51.1387 25.0303 51.2354 25.0303 51.3291 25.0361C51.4229 25.042 51.499 25.0479 51.5576 25.0537C51.8154 25.0713 52.0146 25.1592 52.1553 25.3174C52.2959 25.4697 52.3896 25.6602 52.4365 25.8887C52.4834 26.1172 52.4893 26.3721 52.4541 26.6533C52.4248 26.9346 52.3604 27.2129 52.2607 27.4883C52.167 27.7578 52.0469 28.0127 51.9004 28.2529C51.7539 28.4932 51.5928 28.6895 51.417 28.8418C51.2471 28.9883 51.0654 29.0762 50.8721 29.1055C50.6846 29.1348 50.5 29.0762 50.3184 28.9297ZM50.4502 28.4463C50.5967 28.5635 50.7549 28.5898 50.9248 28.5254C51.0947 28.4609 51.2559 28.3408 51.4082 28.165C51.5664 27.9893 51.707 27.7783 51.8301 27.5322C51.9531 27.2803 52.041 27.0312 52.0938 26.7852C52.1465 26.5332 52.1553 26.3018 52.1201 26.0908C52.085 25.874 51.9912 25.7129 51.8389 25.6074C51.6221 25.4609 51.417 25.417 51.2236 25.4756C51.0303 25.5283 50.8604 25.6426 50.7139 25.8184C50.5674 25.9883 50.4443 26.2021 50.3447 26.46C50.251 26.7178 50.1895 26.9756 50.1602 27.2334C50.1309 27.4912 50.1367 27.7314 50.1777 27.9541C50.2246 28.1768 50.3154 28.3408 50.4502 28.4463ZM61.665 28.9297C61.5244 28.8887 61.3955 28.8154 61.2783 28.71C61.1611 28.5986 61.0557 28.4697 60.9619 28.3232C60.8682 28.1709 60.7861 28.0098 60.7158 27.8398C60.6455 27.6641 60.5811 27.4912 60.5225 27.3213C60.4697 27.1455 60.4229 26.9814 60.3818 26.8291C60.3408 26.6768 60.3057 26.5449 60.2764 26.4336H60.2061C60.1357 26.5859 60.0273 26.7705 59.8809 26.9873C59.7402 27.1982 59.582 27.4033 59.4062 27.6025C59.2305 27.8018 59.043 27.9746 58.8438 28.1211C58.6504 28.2676 58.4658 28.3555 58.29 28.3848C58.1143 28.4082 57.9561 28.3555 57.8154 28.2266C57.6748 28.0918 57.5723 27.8428 57.5078 27.4795C57.4785 26.9229 57.458 26.3691 57.4463 25.8184C57.4346 25.2676 57.4346 24.7139 57.4463 24.1572C57.4639 24.1338 57.4932 24.1045 57.5342 24.0693C57.5811 24.0342 57.6279 24.0107 57.6748 23.999C57.7217 23.9873 57.7627 23.9961 57.7979 24.0254C57.8389 24.0488 57.8594 24.1133 57.8594 24.2188V27.1279C57.8594 27.1807 57.8652 27.2422 57.877 27.3125C57.8945 27.3828 57.918 27.4531 57.9473 27.5234C57.9824 27.5879 58.0205 27.6494 58.0615 27.708C58.1025 27.7607 58.1494 27.7988 58.2021 27.8223C58.4131 27.9102 58.6035 27.9102 58.7734 27.8223C58.9434 27.7285 59.0957 27.582 59.2305 27.3828C59.3711 27.1836 59.4971 26.9492 59.6084 26.6797C59.7256 26.4043 59.8311 26.1348 59.9248 25.8711C60.0186 25.6074 60.1035 25.3643 60.1797 25.1416C60.2617 24.9131 60.3408 24.7432 60.417 24.6318C60.4287 24.6377 60.4404 24.6523 60.4521 24.6758C60.4697 24.6934 60.4814 24.7051 60.4873 24.7109C60.5049 24.7344 60.54 24.7812 60.5928 24.8516C60.6455 24.916 60.6777 24.96 60.6895 24.9834C60.6895 25.0889 60.6895 25.2354 60.6895 25.4229C60.6953 25.6045 60.707 25.8066 60.7246 26.0293C60.7422 26.2461 60.7686 26.4746 60.8037 26.7148C60.8389 26.9492 60.8857 27.1748 60.9443 27.3916C61.0088 27.6084 61.0879 27.8047 61.1816 27.9805C61.2812 28.1504 61.3984 28.2822 61.5332 28.376C61.6738 28.4639 61.835 28.5049 62.0166 28.499C62.2041 28.4873 62.4209 28.4053 62.667 28.2529C62.79 28.1768 62.8633 28.1064 62.8867 28.042C62.9102 27.9775 62.9189 27.9131 62.9131 27.8486C62.9072 27.7783 62.9014 27.708 62.8955 27.6377C62.8955 27.5674 62.9365 27.4824 63.0186 27.3828C63.165 27.3359 63.2764 27.3535 63.3525 27.4355C63.4287 27.5176 63.4697 27.6318 63.4756 27.7783C63.4873 27.9248 63.458 28.0859 63.3877 28.2617C63.3232 28.4316 63.2148 28.5811 63.0625 28.71C62.916 28.8389 62.7256 28.9326 62.4912 28.9912C62.2627 29.0439 61.9873 29.0234 61.665 28.9297ZM70.5068 28.7627C70.2725 28.6279 70.0879 28.4932 69.9531 28.3584C69.8242 28.2178 69.7012 28.083 69.584 27.9541C69.4668 27.8193 69.332 27.6934 69.1797 27.5762C69.0273 27.4531 68.8164 27.3447 68.5469 27.251C68.5059 27.3682 68.4736 27.5059 68.4502 27.6641C68.4268 27.8223 68.4062 27.9834 68.3887 28.1475C68.377 28.3057 68.3652 28.458 68.3535 28.6045C68.3477 28.7451 68.3389 28.8535 68.3271 28.9297C68.251 29.0234 68.1777 29.0645 68.1074 29.0527C68.0371 29.041 67.9727 29.0059 67.9141 28.9473C67.8613 28.8828 67.8145 28.8096 67.7734 28.7275C67.7383 28.6396 67.7178 28.5723 67.7119 28.5254C67.8467 28.209 67.9375 27.8896 67.9844 27.5674C68.0371 27.2451 68.0605 26.9141 68.0547 26.5742C68.0547 26.2344 68.0371 25.8828 68.002 25.5195C67.9668 25.1562 67.9375 24.7754 67.9141 24.377C67.9434 24.3301 67.9814 24.292 68.0283 24.2627C68.0811 24.2334 68.1367 24.2305 68.1953 24.2539C68.2715 24.166 68.3711 24.0693 68.4941 23.9639C68.6172 23.8525 68.749 23.7529 68.8896 23.665C69.0361 23.5713 69.1855 23.4951 69.3379 23.4365C69.4961 23.3779 69.6426 23.3545 69.7773 23.3662C69.9121 23.3721 70.0293 23.4219 70.1289 23.5156C70.2344 23.6094 70.3105 23.7617 70.3574 23.9727C70.4043 24.2773 70.3955 24.5615 70.3311 24.8252C70.2666 25.0889 70.1611 25.3408 70.0146 25.5811C69.874 25.8154 69.6953 26.0381 69.4785 26.249C69.2617 26.4541 69.0215 26.6533 68.7578 26.8467C68.7402 26.8818 68.7461 26.917 68.7754 26.9521C68.8105 26.9814 68.8516 27.0107 68.8984 27.04C68.9512 27.0635 69.0039 27.084 69.0566 27.1016C69.1094 27.1191 69.1475 27.1309 69.1709 27.1367C69.2881 27.2188 69.417 27.3301 69.5576 27.4707C69.6982 27.6055 69.8447 27.7461 69.9971 27.8926C70.1553 28.0332 70.3135 28.1621 70.4717 28.2793C70.6357 28.3965 70.7969 28.4727 70.9551 28.5078C71.1133 28.5371 71.2656 28.5137 71.4121 28.4375C71.5645 28.3613 71.708 28.2002 71.8428 27.9541H71.9834C72.0068 28.1299 71.9775 28.2939 71.8955 28.4463C71.8193 28.5928 71.708 28.707 71.5615 28.7891C71.4209 28.8711 71.2568 28.915 71.0693 28.9209C70.8818 28.9268 70.6943 28.874 70.5068 28.7627ZM68.4766 25.8711C68.4824 25.8945 68.4883 25.9385 68.4941 26.0029C68.5 26.0615 68.5059 26.126 68.5117 26.1963C68.5234 26.2607 68.5322 26.3223 68.5381 26.3809C68.5439 26.4395 68.5469 26.4805 68.5469 26.5039C68.7988 26.4043 69.0186 26.249 69.2061 26.0381C69.3936 25.8271 69.5459 25.6016 69.6631 25.3613C69.7803 25.1152 69.8564 24.8721 69.8916 24.6318C69.9326 24.3857 69.9326 24.1836 69.8916 24.0254C69.8506 23.8672 69.7627 23.7705 69.6279 23.7354C69.499 23.6943 69.3232 23.7529 69.1006 23.9111C68.8896 24.0635 68.7344 24.2129 68.6348 24.3594C68.541 24.5 68.4766 24.6494 68.4414 24.8076C68.4121 24.96 68.4062 25.124 68.4238 25.2998C68.4414 25.4697 68.459 25.6602 68.4766 25.8711ZM77.5381 29.0439C77.4854 29.0146 77.4121 28.9795 77.3184 28.9385C77.2305 28.8916 77.1367 28.8389 77.0371 28.7803C76.9375 28.7217 76.8408 28.6602 76.7471 28.5957C76.6592 28.5254 76.5859 28.4521 76.5273 28.376C76.4688 28.2939 76.4365 28.209 76.4307 28.1211C76.4248 28.0332 76.457 27.9424 76.5273 27.8486C76.5391 27.8369 76.5771 27.8691 76.6416 27.9453C76.7119 28.0156 76.7998 28.1035 76.9053 28.209C77.0107 28.3086 77.1309 28.4141 77.2656 28.5254C77.4004 28.6309 77.5381 28.7129 77.6787 28.7715C77.8193 28.8242 77.96 28.8418 78.1006 28.8242C78.2412 28.8008 78.3701 28.7129 78.4873 28.5605C78.5342 28.4961 78.5664 28.4229 78.584 28.3408C78.6074 28.2529 78.6162 28.165 78.6104 28.0771C78.6045 27.9893 78.5898 27.9043 78.5664 27.8223C78.5488 27.7344 78.5225 27.6553 78.4873 27.585C78.4111 27.4209 78.291 27.2539 78.127 27.084C77.9688 26.9141 77.7959 26.7412 77.6084 26.5654C77.4268 26.3896 77.248 26.2109 77.0723 26.0293C76.8965 25.8477 76.7588 25.6631 76.6592 25.4756C76.5596 25.2881 76.5098 25.1006 76.5098 24.9131C76.5156 24.7197 76.6035 24.5234 76.7734 24.3242C76.9082 24.1719 77.0752 24.0957 77.2744 24.0957C77.4795 24.0957 77.6787 24.1396 77.8721 24.2275C78.0713 24.3154 78.2441 24.4297 78.3906 24.5703C78.543 24.7051 78.6367 24.8369 78.6719 24.9658C78.6895 25.0186 78.6953 25.0771 78.6895 25.1416C78.6836 25.2002 78.666 25.25 78.6367 25.291C78.6074 25.332 78.5635 25.3613 78.5049 25.3789C78.4521 25.3906 78.3818 25.3789 78.2939 25.3438C78.1943 25.3086 78.1152 25.2324 78.0566 25.1152C78.0039 24.998 77.9453 24.8838 77.8809 24.7725C77.8223 24.6553 77.7432 24.5645 77.6436 24.5C77.5498 24.4297 77.4092 24.4238 77.2217 24.4824C77.0107 24.5527 76.8965 24.6611 76.8789 24.8076C76.8613 24.9482 76.9023 25.1123 77.002 25.2998C77.1074 25.4814 77.248 25.6748 77.4238 25.8799C77.6055 26.0791 77.7871 26.2695 77.9688 26.4512C78.1562 26.6328 78.3232 26.7969 78.4697 26.9434C78.6162 27.084 78.707 27.1865 78.7422 27.251C78.8125 27.3857 78.874 27.5557 78.9268 27.7607C78.9854 27.96 79.0059 28.1562 78.9883 28.3496C78.9707 28.543 78.9062 28.7129 78.7949 28.8594C78.6836 29 78.4961 29.0791 78.2324 29.0967C78.1973 29.1025 78.1475 29.1055 78.083 29.1055C78.0244 29.1113 77.9629 29.1143 77.8984 29.1143C77.834 29.1143 77.7666 29.1084 77.6963 29.0967C77.6318 29.085 77.5791 29.0674 77.5381 29.0439ZM85.6855 28.9297C85.4629 28.8359 85.293 28.7158 85.1758 28.5693C85.0645 28.4229 84.9824 28.2617 84.9297 28.0859C84.877 27.9102 84.8447 27.7227 84.833 27.5234C84.8213 27.3242 84.8066 27.1221 84.7891 26.917C84.6543 26.9404 84.5225 26.9521 84.3936 26.9521C84.2646 26.9463 84.1504 26.9346 84.0508 26.917C83.957 26.8936 83.8896 26.8643 83.8486 26.8291C83.8076 26.7881 83.8018 26.7471 83.8311 26.7061C83.8662 26.6592 83.9482 26.6123 84.0771 26.5654C84.2061 26.5186 84.3965 26.4746 84.6484 26.4336C84.6836 26.4336 84.7334 26.416 84.7979 26.3809C84.8682 26.3457 84.9092 26.3193 84.9209 26.3018C84.9619 26.2432 85 26.1436 85.0352 26.0029C85.0703 25.8564 85.1055 25.6953 85.1406 25.5195C85.1816 25.3438 85.2285 25.168 85.2812 24.9922C85.3398 24.8105 85.4102 24.6553 85.4922 24.5264C85.5801 24.3975 85.6826 24.3066 85.7998 24.2539C85.9229 24.2012 86.0723 24.2129 86.248 24.2891C86.2656 24.3008 86.2891 24.3242 86.3184 24.3594C86.3535 24.3887 86.3887 24.4209 86.4238 24.4561C86.459 24.4912 86.4912 24.5264 86.5205 24.5615C86.5557 24.5908 86.5791 24.6143 86.5908 24.6318C86.6143 24.9189 86.5967 25.1621 86.5381 25.3613C86.4795 25.5605 86.4004 25.7305 86.3008 25.8711C86.2012 26.0059 86.0898 26.1201 85.9668 26.2139C85.8438 26.3076 85.7266 26.3984 85.6152 26.4863C85.5039 26.5684 85.4072 26.6533 85.3252 26.7412C85.249 26.8291 85.208 26.9375 85.2021 27.0664C85.1904 27.2188 85.1846 27.3594 85.1846 27.4883C85.1846 27.6113 85.1992 27.7285 85.2285 27.8398C85.2578 27.9512 85.3076 28.0566 85.3779 28.1562C85.4482 28.2559 85.5508 28.3525 85.6855 28.4463C85.7852 28.5166 85.9082 28.5342 86.0547 28.499C86.2012 28.4639 86.3506 28.4023 86.5029 28.3145C86.6553 28.2266 86.8047 28.127 86.9512 28.0156C87.0977 27.9043 87.2236 27.8105 87.3291 27.7344C87.4346 27.6523 87.5107 27.5996 87.5576 27.5762C87.6045 27.5527 87.6045 27.5879 87.5576 27.6816C87.4756 27.875 87.3789 28.0684 87.2676 28.2617C87.1562 28.4551 87.0244 28.6191 86.8721 28.7539C86.7197 28.8887 86.5439 28.9766 86.3447 29.0176C86.1514 29.0645 85.9316 29.0352 85.6855 28.9297ZM85.4043 25.7393C85.3984 25.7686 85.3867 25.8271 85.3691 25.915C85.3516 26.0029 85.3428 26.0615 85.3428 26.0908C85.3486 26.0967 85.3574 26.0996 85.3691 26.0996C85.3867 26.0996 85.3984 26.0967 85.4043 26.0908C85.4219 26.0791 85.4482 26.0615 85.4834 26.0381C85.5186 26.0088 85.5537 25.9824 85.5889 25.959C85.624 25.9297 85.6562 25.9033 85.6855 25.8799C85.7207 25.8506 85.7441 25.8301 85.7559 25.8184C85.9316 25.6426 86.0547 25.4814 86.125 25.335C86.2012 25.1826 86.2393 25.0596 86.2393 24.9658C86.2393 24.8721 86.207 24.8105 86.1426 24.7812C86.084 24.7461 86.0107 24.7549 85.9229 24.8076C85.8408 24.8604 85.7529 24.9629 85.6592 25.1152C85.5654 25.2617 85.4805 25.4697 85.4043 25.7393ZM92.7432 28.8682C92.7197 28.7744 92.7021 28.6455 92.6904 28.4814C92.6787 28.3174 92.6729 28.1357 92.6729 27.9365C92.6729 27.7314 92.6729 27.5176 92.6729 27.2949C92.6787 27.0723 92.6846 26.8555 92.6904 26.6445C92.6963 26.4336 92.6963 26.2373 92.6904 26.0557C92.6904 25.874 92.6846 25.7246 92.6729 25.6074C92.667 25.5195 92.6582 25.3906 92.6465 25.2207C92.6406 25.0449 92.6318 24.8486 92.6201 24.6318C92.6084 24.415 92.5938 24.1865 92.5762 23.9463C92.5645 23.7061 92.5557 23.4775 92.5498 23.2607C92.5439 23.0381 92.541 22.8359 92.541 22.6543C92.541 22.4668 92.5469 22.3232 92.5586 22.2236C92.6465 22.1475 92.7168 22.168 92.7695 22.2852C92.8281 22.3965 92.8721 22.5605 92.9014 22.7773C92.9307 22.9883 92.9482 23.2285 92.9541 23.498C92.9658 23.7676 92.9717 24.0225 92.9717 24.2627C92.9717 24.5029 92.9688 24.7051 92.9629 24.8691C92.957 25.0332 92.9541 25.1182 92.9541 25.124C92.9834 25.6748 93.001 26.2197 93.0068 26.7588C93.0186 27.292 93.0479 27.8311 93.0947 28.376C93.1533 28.4873 93.1826 28.6074 93.1826 28.7363C93.1885 28.8594 93.1709 28.959 93.1299 29.0352C93.0947 29.1113 93.042 29.1436 92.9717 29.1318C92.9014 29.1201 92.8252 29.0322 92.7432 28.8682ZM99.3262 26.5039C99.1914 26.4863 99.0391 26.4951 98.8691 26.5303C98.6992 26.5596 98.5498 26.5977 98.4209 26.6445C98.3623 26.668 98.3037 26.6533 98.2451 26.6006C98.1924 26.5479 98.1543 26.4863 98.1309 26.416C98.1074 26.3398 98.1045 26.2695 98.1221 26.2051C98.1396 26.1406 98.1924 26.1025 98.2803 26.0908C98.3037 26.0908 98.3682 26.0938 98.4736 26.0996C98.5791 26.1055 98.6904 26.1084 98.8076 26.1084C98.9307 26.1025 99.042 26.0908 99.1416 26.0732C99.2471 26.0498 99.3086 26.0117 99.3262 25.959C99.3203 25.7129 99.3115 25.4492 99.2998 25.168C99.2881 24.8867 99.2822 24.6025 99.2822 24.3154C99.2822 24.0225 99.2939 23.7354 99.3174 23.4541C99.3467 23.167 99.3936 22.8916 99.458 22.6279C99.499 22.4756 99.5576 22.3701 99.6338 22.3115C99.7158 22.2529 99.8447 22.2441 100.021 22.2852C100.161 22.3145 100.308 22.3877 100.46 22.5049C100.612 22.6162 100.753 22.748 100.882 22.9004C101.017 23.0527 101.131 23.2168 101.225 23.3926C101.324 23.5625 101.383 23.7236 101.4 23.876C101.406 23.9346 101.38 23.9873 101.321 24.0342C101.269 24.0811 101.207 24.1016 101.137 24.0957C101.066 24.0898 100.999 24.0459 100.935 23.9639C100.876 23.876 100.847 23.7295 100.847 23.5244C100.847 23.5127 100.838 23.4922 100.82 23.4629C100.803 23.4277 100.788 23.4043 100.776 23.3926L100.152 22.7686C100.035 22.7217 99.9443 22.7305 99.8799 22.7949C99.8213 22.8535 99.7773 22.9326 99.748 23.0322C99.7188 23.1318 99.6982 23.2373 99.6865 23.3486C99.6807 23.46 99.6748 23.5449 99.6689 23.6035C99.6514 23.8262 99.6338 24.0283 99.6162 24.21C99.6045 24.3916 99.5957 24.5703 99.5898 24.7461C99.5898 24.9219 99.5957 25.1006 99.6074 25.2822C99.6191 25.4639 99.6396 25.666 99.6689 25.8887C99.6924 25.8945 99.7744 25.8711 99.915 25.8184C100.062 25.7598 100.231 25.6982 100.425 25.6338C100.624 25.5635 100.829 25.499 101.04 25.4404C101.251 25.3818 101.433 25.3496 101.585 25.3438C101.743 25.3379 101.854 25.3701 101.919 25.4404C101.989 25.5049 101.978 25.6309 101.884 25.8184C101.849 25.8828 101.796 25.915 101.726 25.915C101.655 25.9092 101.594 25.9004 101.541 25.8887C101.5 25.9004 101.43 25.9238 101.33 25.959C101.23 25.9883 101.125 26.0234 101.014 26.0645C100.908 26.0996 100.806 26.1348 100.706 26.1699C100.606 26.1992 100.539 26.2197 100.504 26.2314C100.486 26.2373 100.448 26.2461 100.39 26.2578C100.337 26.2695 100.278 26.2842 100.214 26.3018C100.155 26.3193 100.097 26.334 100.038 26.3457C99.9854 26.3574 99.9531 26.3662 99.9414 26.3721C99.9238 26.3779 99.9033 26.3838 99.8799 26.3896C99.8623 26.3896 99.8418 26.3955 99.8184 26.4072C99.7949 26.4189 99.7686 26.4277 99.7393 26.4336V28.9297C99.7393 28.9766 99.7158 29.0059 99.6689 29.0176C99.6279 29.0293 99.5811 29.0264 99.5283 29.0088C99.4814 28.9971 99.4346 28.9736 99.3877 28.9385C99.3467 28.8975 99.3262 28.8477 99.3262 28.7891V26.5039Z" fill="white"/>
    <path d="M106 27L162 27" stroke="#F1F1F1" stroke-width="0.5" stroke-linecap="round"/>
</svg>
