<svg width="169" height="55" viewBox="0 0 169 55" fill="none" xmlns="http://www.w3.org/2000/svg">
    <path d="M153.06 40C152.963 40 152.818 39.9903 152.625 39.971C152.432 39.9323 152.2 39.9033 151.929 39.884L151.32 39.739C151.223 39.7197 151.146 39.7003 151.088 39.681C151.049 39.6423 151.04 39.6133 151.059 39.594C151.059 39.0913 151.03 38.4243 150.972 37.593C150.972 37.303 150.962 37.0517 150.943 36.839C150.924 36.607 150.904 36.4137 150.885 36.259L150.827 35.012C150.827 34.6833 150.808 34.2677 150.769 33.765L150.74 32.866C150.74 32.1313 150.73 31.561 150.711 31.155C150.692 30.749 150.682 29.8983 150.682 28.603C150.682 27.385 150.692 26.1283 150.711 24.833C150.73 23.5377 150.788 22.31 150.885 21.15C150.885 20.9373 151.117 20.7633 151.581 20.628C151.871 20.5893 152.354 20.57 153.031 20.57C154.597 20.57 155.747 20.541 156.482 20.483C158.763 20.4443 160.484 20.425 161.644 20.425H162.92C164.505 20.4637 165.723 20.5217 166.574 20.599C166.883 20.599 167.106 20.9663 167.241 21.701C167.299 21.8363 167.367 22.1843 167.444 22.745C167.502 23.035 167.579 23.3927 167.676 23.818C167.695 23.934 167.695 24.05 167.676 24.166C167.676 24.2627 167.676 24.3207 167.676 24.34C167.657 24.5333 167.55 24.63 167.357 24.63C167.28 24.6107 167.164 24.601 167.009 24.601C166.197 24.601 165.201 24.6687 164.022 24.804L162.485 24.92C161.847 24.9973 161.344 25.0457 160.977 25.065C160.919 25.065 160.842 25.181 160.745 25.413C160.668 25.6643 160.581 26.2443 160.484 27.153L160.426 27.878C160.426 28.1293 160.455 28.2937 160.513 28.371C160.571 28.429 160.697 28.458 160.89 28.458H163.471C164.225 28.458 165.085 28.5063 166.052 28.603H166.4C166.651 28.661 166.806 28.7577 166.864 28.893C166.941 29.009 166.99 29.1347 167.009 29.27L167.125 31.851V31.938C167.125 32.2667 166.777 32.46 166.081 32.518C165.675 32.6147 164.902 32.663 163.761 32.663C162.775 32.663 162.137 32.6533 161.847 32.634C161.286 32.634 160.948 32.6437 160.832 32.663C160.619 32.721 160.484 32.837 160.426 33.011C160.368 33.1657 160.339 33.4363 160.339 33.823C160.339 34.0743 160.32 34.432 160.281 34.896C160.262 35.128 160.252 35.4953 160.252 35.998C161.509 35.998 162.437 35.9787 163.036 35.94C163.693 35.882 164.621 35.853 165.82 35.853C165.897 35.853 165.975 35.9207 166.052 36.056C166.149 36.2493 166.303 36.6843 166.516 37.361C166.632 37.7477 166.748 38.231 166.864 38.811C166.903 38.9463 166.922 39.0913 166.922 39.246C166.922 39.652 166.729 39.855 166.342 39.855C165.839 39.855 165.163 39.8743 164.312 39.913C163.867 39.9517 163.171 39.971 162.224 39.971C160.194 39.971 158.667 39.9807 157.642 40H153.06Z" fill="#FF0000"/>
    <path d="M53.08 40.319C52.2293 39.4877 51.5043 38.6467 50.905 37.796C50.4797 37.2353 49.8223 36.2397 48.933 34.809L48.44 34.026C48.4207 34.0067 48.4013 33.997 48.382 33.997C48.382 33.9777 48.382 33.968 48.382 33.968H48.237L48.121 34.026C48.1017 34.2773 48.092 34.954 48.092 36.056C48.092 36.7713 48.0533 37.6123 47.976 38.579L47.947 39.449C47.8697 39.6617 47.8213 39.768 47.802 39.768H47.599H47.512C45.3853 39.9227 43.8387 40 42.872 40H42.437H41.886C41.6733 40 41.5187 39.9903 41.422 39.971H41.219L40.32 39.681L40.262 39.478C40.2233 39.478 40.1943 39.4393 40.175 39.362C40.175 39.2847 40.175 39.2267 40.175 39.188C40.117 38.376 40.0687 37.7863 40.03 37.419C39.9527 36.375 39.9043 35.6113 39.885 35.128C39.8463 34.664 39.827 34.3643 39.827 34.229L39.682 32.634L39.653 31.764C39.6337 31.59 39.624 31.3483 39.624 31.039V30.778C39.6627 30.6813 39.682 30.5267 39.682 30.314V29.821C39.7013 29.7437 39.711 29.6567 39.711 29.56L39.682 29.328V29.038C39.682 28.9027 39.6627 28.7963 39.624 28.719V28.545L39.653 27.82C39.6723 27.6847 39.682 27.4817 39.682 27.211C39.7207 26.631 39.74 26.08 39.74 25.558V25.268C39.7207 25.21 39.711 25.0843 39.711 24.891V24.485V24.195C39.653 24.137 39.624 24.079 39.624 24.021C39.624 23.7503 39.8657 23.557 40.349 23.441C40.6003 23.3637 40.958 23.325 41.422 23.325C45.946 23.325 49.3293 23.4797 51.572 23.789C53.776 24.0983 55.3227 24.63 56.212 25.384C56.5987 25.7513 56.8693 26.1863 57.024 26.689C57.198 27.1723 57.285 27.7523 57.285 28.429C57.285 29.5117 56.9757 30.4203 56.357 31.155C55.951 31.561 55.4773 31.8993 54.936 32.17C55.052 32.46 55.3903 33.04 55.951 33.91C56.067 34.0453 56.1733 34.1903 56.27 34.345C56.386 34.4997 56.5213 34.664 56.676 34.838C57.0433 35.3407 57.4687 35.8917 57.952 36.491C57.9713 36.5683 58.0487 36.7327 58.184 36.984C58.2807 37.0227 58.329 37.071 58.329 37.129C58.3483 37.1677 58.3387 37.2257 58.3 37.303C58.1453 37.535 57.691 37.8733 56.937 38.318C56.8403 38.4147 56.7243 38.5113 56.589 38.608C56.2023 38.9173 55.6707 39.2363 54.994 39.565C54.3753 39.8937 53.8437 40.1257 53.399 40.261C53.225 40.3577 53.1187 40.377 53.08 40.319ZM47.802 30.111C48.0533 30.111 48.3917 30.0627 48.817 29.966C49.223 29.85 49.513 29.734 49.687 29.618C49.977 29.444 50.2283 29.2507 50.441 29.038C50.6537 28.7867 50.76 28.4967 50.76 28.168C50.76 27.6267 50.5957 27.1917 50.267 26.863C49.977 26.631 49.6193 26.515 49.194 26.515H47.947C47.947 26.7663 47.9277 27.1627 47.889 27.704L47.86 28.313C47.8213 28.6997 47.802 29.299 47.802 30.111ZM61.722 40.029C61.3547 40.029 61.2097 39.7003 61.287 39.043C61.287 38.811 61.3353 38.55 61.432 38.26C61.432 38.1247 61.4417 38.0183 61.461 37.941C61.4803 37.8443 61.49 37.767 61.49 37.709C61.9347 35.6017 62.4277 33.5233 62.969 31.474L64.941 23.76C64.941 23.7213 64.97 23.673 65.028 23.615C65.086 23.557 65.144 23.5087 65.202 23.47H65.405C65.637 23.47 65.8207 23.441 65.956 23.383C66.072 23.3637 66.275 23.354 66.565 23.354C67.029 23.354 67.377 23.3637 67.609 23.383C67.957 23.441 68.3147 23.47 68.682 23.47L70.19 23.441C70.3447 23.4023 70.5283 23.383 70.741 23.383L72.017 23.325H72.974C73.3413 23.325 73.699 23.3347 74.047 23.354H74.859C75.0523 23.3733 75.3327 23.383 75.7 23.383H76.802C76.86 23.383 76.918 23.3927 76.976 23.412C77.034 23.4313 77.0823 23.4507 77.121 23.47C77.1983 23.5087 77.295 23.528 77.411 23.528H77.672C77.8073 23.6247 77.875 23.7213 77.875 23.818L79.934 31.474C80.572 33.9293 81.0747 36.0077 81.442 37.709C81.442 37.8057 81.471 37.9893 81.529 38.26C81.6063 38.6467 81.645 38.956 81.645 39.188C81.645 39.3233 81.6257 39.507 81.587 39.739C81.4903 39.9323 81.355 40.029 81.181 40.029H80.862C80.6107 40.029 80.4173 40.0193 80.282 40H79.644H79.035H78.542C78.4067 40 78.3293 39.9903 78.31 39.971H76.715L76.686 39.913C76.6473 39.8743 76.5893 39.855 76.512 39.855L76.425 39.913C76.425 39.9517 76.4057 39.971 76.367 39.971H76.28H76.077C75.9803 39.9323 75.8063 39.913 75.555 39.913C75.091 39.8743 74.7043 39.855 74.395 39.855C74.1823 39.4103 73.931 38.434 73.641 36.926C73.235 36.984 72.771 37.013 72.249 37.013H71.495H70.77C70.6927 37.303 70.6443 37.5447 70.625 37.738C70.6057 37.8347 70.5283 38.1633 70.393 38.724C70.2577 39.2847 70.132 39.6617 70.016 39.855L69.842 39.913C69.784 39.9323 69.7357 39.9517 69.697 39.971C69.6583 39.971 69.639 39.971 69.639 39.971H69.581C69.465 39.971 69.3877 39.9517 69.349 39.913C69.2717 39.8743 69.2233 39.855 69.204 39.855L68.102 39.913H67.29C67.1933 39.9323 67.116 39.9517 67.058 39.971C67 39.971 66.9613 39.971 66.942 39.971H64.622H64.39C64.216 39.9903 63.8583 40 63.317 40H62.621C62.505 40.0193 62.3213 40.029 62.07 40.029H61.722ZM73.38 33.823C73.264 33.1657 73.1963 32.779 73.177 32.663L72.945 31.271C72.9063 31.0003 72.8677 30.7587 72.829 30.546C72.7903 30.314 72.7613 30.1013 72.742 29.908C72.684 29.676 72.6357 29.4633 72.597 29.27C72.5777 29.0573 72.5487 28.864 72.51 28.69C72.4907 28.574 72.4713 28.429 72.452 28.255C72.4327 28.0617 72.4037 27.9263 72.365 27.849L72.307 27.501C72.307 27.4237 72.2877 27.356 72.249 27.298L72.22 27.124C72.1813 27.24 72.162 27.298 72.162 27.298V27.414V27.501C72.162 27.5203 72.1523 27.559 72.133 27.617C72.1137 27.6557 72.0943 27.733 72.075 27.849C72.0557 27.9457 72.0363 28.0713 72.017 28.226C71.9977 28.3613 71.9687 28.516 71.93 28.69L71.727 29.879L71.495 31.213L71.408 31.851C71.3693 32.0057 71.3307 32.257 71.292 32.605C71.118 33.475 71.0407 33.8713 71.06 33.794H72.336C72.3553 33.7747 72.3843 33.7553 72.423 33.736C72.4617 33.6973 72.4907 33.678 72.51 33.678H72.597C72.6937 33.678 72.771 33.6877 72.829 33.707C72.9063 33.7263 72.974 33.7457 73.032 33.765C73.148 33.8037 73.264 33.823 73.38 33.823ZM93.4079 40.696C91.7066 40.696 90.3049 40.5413 89.2029 40.232C87.7336 39.826 86.5929 39.043 85.7809 37.883C84.8722 36.5877 84.4179 34.7027 84.4179 32.228C84.4179 30.72 84.6209 29.3667 85.0269 28.168C85.4329 26.95 86.0226 25.9253 86.7959 25.094C87.5692 24.282 88.4682 23.6633 89.4929 23.238C90.5176 22.8127 91.6292 22.6 92.8279 22.6C94.8386 22.6 96.9266 23.2283 99.0919 24.485L98.7149 27.733L98.0479 27.588C97.9706 27.5687 97.6709 27.501 97.1489 27.385C96.6269 27.269 96.1532 27.211 95.7279 27.211C94.8192 27.211 94.1426 27.5203 93.6979 28.139C93.1179 28.9123 92.8279 30.1593 92.8279 31.88C92.8279 33.2913 93.0309 34.3547 93.4369 35.07C93.8236 35.6693 94.3456 35.969 95.0029 35.969C95.4669 35.969 96.0082 35.8143 96.6269 35.505C97.2262 35.215 97.8062 34.8767 98.3669 34.49L98.6569 38.608C97.9802 39.246 97.1489 39.7487 96.1629 40.116C95.2736 40.5027 94.3552 40.696 93.4079 40.696ZM110.511 40.087H109.177H107.669H105.755C105.581 39.8163 105.465 39.3233 105.407 38.608C105.329 37.97 105.291 37.042 105.291 35.824L105.32 32.634C105.339 31.8607 105.349 30.633 105.349 28.951L105.262 28.864H102.391C101.965 28.864 101.685 28.3807 101.55 27.414C101.472 26.892 101.434 26.1283 101.434 25.123V24.746C101.472 24.6107 101.492 24.398 101.492 24.108V23.528L101.521 23.296L101.637 23.18L102.159 23.209H102.739C103.589 23.209 104.237 23.1993 104.682 23.18H106.567H107.089H108.075H109.322H110.569C110.82 23.1993 111.178 23.209 111.642 23.209H112.367C112.444 23.1703 112.57 23.151 112.744 23.151C112.879 23.1123 113.005 23.093 113.121 23.093C113.488 23.093 113.768 23.1123 113.962 23.151C114.348 23.1897 114.638 23.209 114.832 23.209L115.586 23.18H116.717C117.297 23.18 117.693 23.1897 117.906 23.209L118.312 23.238C118.331 23.2573 118.36 23.2863 118.399 23.325C118.437 23.3443 118.457 23.3637 118.457 23.383V28.313C118.457 28.429 118.389 28.5547 118.254 28.69C118.138 28.8253 118.022 28.9123 117.906 28.951C117.268 28.8157 116.436 28.748 115.412 28.748H114.31C114.02 28.748 113.826 29.1153 113.73 29.85C113.691 30.0627 113.672 30.372 113.672 30.778V31.648C113.672 32.0347 113.681 32.3247 113.701 32.518V33.33C113.701 34.1227 113.662 34.8573 113.585 35.534C113.546 36.0367 113.527 36.404 113.527 36.636C113.488 36.868 113.469 37.187 113.469 37.593C113.469 38.173 113.449 38.6563 113.411 39.043C113.391 39.6423 113.169 39.9613 112.744 40C112.28 40.058 112.009 40.087 111.932 40.087H110.511ZM122.12 40.377C121.772 40.377 121.55 40.029 121.453 39.333C121.395 39.043 121.366 38.782 121.366 38.55C121.366 38.2407 121.356 38.0473 121.337 37.97C121.318 37.4093 121.269 36.52 121.192 35.302L121.105 34.2C120.989 32.4987 120.931 31.242 120.931 30.43V23.383C120.931 23.2283 121.105 23.1123 121.453 23.035C121.646 22.977 121.917 22.948 122.265 22.948C122.497 22.948 122.748 22.9673 123.019 23.006C123.29 23.0253 123.493 23.035 123.628 23.035C123.918 23.0737 124.372 23.093 124.991 23.093L125.107 23.006H126.383C126.441 23.064 126.509 23.093 126.586 23.093H126.702C126.721 23.0737 126.77 23.064 126.847 23.064C126.886 23.0447 126.944 23.035 127.021 23.035C127.04 23.0157 127.06 23.006 127.079 23.006C127.098 23.006 127.108 23.006 127.108 23.006C127.166 23.006 127.234 23.0253 127.311 23.064C127.388 23.0833 127.446 23.093 127.485 23.093H129.631L129.718 28.081C129.718 28.1003 129.699 28.168 129.66 28.284C129.641 28.3807 129.621 28.516 129.602 28.69C129.544 29.386 129.515 29.937 129.515 30.343V35.998L129.428 37.1C129.37 37.5833 129.351 37.9797 129.37 38.289C129.37 38.695 129.351 39.0237 129.312 39.275C129.293 39.507 129.235 39.6907 129.138 39.826C129.022 39.9613 128.838 40.029 128.587 40.029L128.558 40L128.471 39.971C128.432 39.971 128.413 39.9807 128.413 40H128.268C128.152 40.0387 128.084 40.0677 128.065 40.087C127.968 40.087 127.746 40.058 127.398 40L126.992 39.971C126.895 39.971 126.837 40.0097 126.818 40.087H124.643H124.237L123.483 40.232L122.787 40.319L122.12 40.377ZM141.496 40.696C139.794 40.696 138.393 40.5413 137.291 40.232C135.821 39.826 134.681 39.043 133.869 37.883C132.96 36.5877 132.506 34.7027 132.506 32.228C132.506 30.72 132.709 29.3667 133.115 28.168C133.521 26.95 134.11 25.9253 134.884 25.094C135.657 24.282 136.556 23.6633 137.581 23.238C138.605 22.8127 139.717 22.6 140.916 22.6C142.926 22.6 145.014 23.2283 147.18 24.485L146.803 27.733L146.136 27.588C146.058 27.5687 145.759 27.501 145.237 27.385C144.715 27.269 144.241 27.211 143.816 27.211C142.907 27.211 142.23 27.5203 141.786 28.139C141.206 28.9123 140.916 30.1593 140.916 31.88C140.916 33.2913 141.119 34.3547 141.525 35.07C141.911 35.6693 142.433 35.969 143.091 35.969C143.555 35.969 144.096 35.8143 144.715 35.505C145.314 35.215 145.894 34.8767 146.455 34.49L146.745 38.608C146.068 39.246 145.237 39.7487 144.251 40.116C143.361 40.5027 142.443 40.696 141.496 40.696Z" fill="white"/>
    <path d="M4.131 53.9541C3.6108 53.9541 3.2742 53.6175 3.1212 52.9443C2.9682 52.6077 2.8917 51.9957 2.8917 51.1083C2.8917 48.4461 2.8611 46.0746 2.7999 43.9938C2.7081 40.995 2.6622 37.8279 2.6622 34.4925V24.3945C2.6622 24.1191 2.7846 23.859 3.0294 23.6142C3.3048 23.3388 3.5802 23.2011 3.8556 23.2011L9.1341 23.247C10.1133 23.2776 11.3985 23.2929 12.9897 23.2929C15.2847 23.2929 17.0595 23.2776 18.3141 23.247L20.0124 23.2011C21.8484 23.1399 23.3631 23.1093 24.5565 23.1093C26.4843 23.1093 28.3203 23.3847 30.0645 23.9355C32.1147 24.5475 33.7824 25.6032 35.0676 27.1026C36.5058 28.7244 37.2249 30.9123 37.2249 33.6663C37.2249 38.3175 36.0468 41.6835 33.6906 43.7643C31.6098 45.7227 28.5039 46.7019 24.3729 46.7019H18.0846C18.1152 47.4057 18.1305 48.1554 18.1305 48.951C18.1305 49.2264 18.1152 49.563 18.0846 49.9608C18.0846 50.328 18.0846 50.8329 18.0846 51.4755C18.0846 52.4853 17.8704 53.1279 17.442 53.4033C17.1054 53.6787 16.4781 53.8164 15.5601 53.8164C14.2137 53.8164 13.2804 53.8317 12.7602 53.8623C10.6488 53.8623 8.9658 53.8929 7.7112 53.9541H4.131ZM20.5632 41.1939C21.2058 41.1939 21.6801 40.5819 21.9861 39.3579C22.2309 38.5317 22.4145 37.3077 22.5369 35.6859C22.5981 34.7985 22.6287 33.804 22.6287 32.7024V32.1975C22.6287 31.7079 22.5522 30.9735 22.3992 29.9943C22.2768 29.4435 22.1391 29.0151 21.9861 28.7091C21.8331 28.3725 21.6342 28.0971 21.3894 27.8829C21.1446 27.6075 20.8692 27.4698 20.5632 27.4698C20.4102 27.4698 20.2725 27.531 20.1501 27.6534C20.0583 27.7758 19.9665 27.9288 19.8747 28.1124C19.5381 28.6632 19.2321 29.8872 18.9567 31.7844C18.8649 32.3352 18.7884 33.1614 18.7272 34.263C18.5742 35.946 18.4977 38.1951 18.4977 41.0103C18.4977 41.0103 18.513 41.0256 18.5436 41.0562C18.5742 41.0868 18.6354 41.1174 18.7272 41.148L19.278 41.1939H20.5632Z" fill="#FF792F"/>
    <path d="M42.3467 54.3965C42.1475 54.2969 42.0098 54.0918 41.9336 53.7812C41.8633 53.4707 41.8398 53.1074 41.8633 52.6914C41.8867 52.2754 41.9512 51.8359 42.0566 51.373C42.168 50.9102 42.3086 50.4766 42.4785 50.0723C42.6543 49.668 42.8535 49.3223 43.0762 49.0352C43.3047 48.7539 43.5479 48.5811 43.8057 48.5166C43.8115 48.4814 43.8174 48.4258 43.8232 48.3496C43.8291 48.2676 43.835 48.1826 43.8408 48.0947C43.8467 48.0068 43.8525 47.9248 43.8584 47.8486C43.8643 47.7666 43.8672 47.708 43.8672 47.6729C43.873 47.5439 43.876 47.3799 43.876 47.1807C43.876 46.9756 43.876 46.7793 43.876 46.5918C43.876 46.3984 43.876 46.2344 43.876 46.0996C43.876 45.959 43.873 45.8857 43.8672 45.8799L43.8057 45.8184C43.7588 45.9004 43.665 46.041 43.5244 46.2402C43.3838 46.4395 43.2168 46.6562 43.0234 46.8906C42.8301 47.125 42.6162 47.3594 42.3818 47.5938C42.1475 47.8223 41.9102 48.0127 41.6699 48.165C41.4297 48.3115 41.1953 48.3965 40.9668 48.4199C40.7383 48.4375 40.5303 48.3525 40.3428 48.165C40.249 48.0771 40.1846 47.9424 40.1494 47.7607C40.1201 47.5732 40.1055 47.3682 40.1055 47.1455C40.1113 46.917 40.1289 46.6797 40.1582 46.4336C40.1934 46.1816 40.2314 45.9443 40.2725 45.7217C40.3135 45.4932 40.3516 45.291 40.3867 45.1152C40.4277 44.9336 40.457 44.7988 40.4746 44.7109C40.5039 44.6406 40.5479 44.5967 40.6064 44.5791C40.6709 44.5557 40.7324 44.5527 40.791 44.5703C40.8496 44.582 40.8965 44.6143 40.9316 44.667C40.9727 44.7139 40.9844 44.7725 40.9668 44.8428C40.9023 45.0889 40.8438 45.3262 40.791 45.5547C40.7441 45.7832 40.7031 46.0117 40.668 46.2402C40.6387 46.4688 40.6182 46.7002 40.6064 46.9346C40.6006 47.1689 40.6064 47.415 40.624 47.6729C40.7412 47.8311 40.8848 47.9014 41.0547 47.8838C41.2246 47.8604 41.4062 47.7871 41.5996 47.6641C41.793 47.5352 41.9893 47.3682 42.1885 47.1631C42.3877 46.958 42.5723 46.75 42.7422 46.5391C42.9121 46.3281 43.0586 46.1318 43.1816 45.9502C43.3105 45.7627 43.4014 45.625 43.4541 45.5371C43.5068 45.4492 43.5479 45.3496 43.5771 45.2383C43.6123 45.127 43.6475 45.0186 43.6826 44.9131C43.7236 44.8018 43.7676 44.6963 43.8145 44.5967C43.8672 44.4971 43.9346 44.418 44.0166 44.3594L44.2891 44.6318V48.2354C44.3184 48.2412 44.3857 48.2383 44.4912 48.2266C44.6025 48.2148 44.6992 48.209 44.7812 48.209C44.8633 48.209 44.9102 48.2266 44.9219 48.2617C44.9395 48.291 44.8691 48.3525 44.7109 48.4463C44.6289 48.4932 44.5469 48.543 44.4648 48.5957C44.3887 48.6426 44.3066 48.6836 44.2188 48.7188C44.166 49.2168 44.1162 49.6533 44.0693 50.0283C44.0225 50.4092 43.9697 50.7725 43.9111 51.1182C43.8525 51.4639 43.7822 51.8184 43.7002 52.1816C43.6182 52.5449 43.5156 52.9609 43.3926 53.4297C43.3457 53.5352 43.293 53.6582 43.2344 53.7988C43.1816 53.9453 43.1143 54.0742 43.0322 54.1855C42.9561 54.3027 42.8623 54.3848 42.751 54.4316C42.6396 54.4844 42.5049 54.4727 42.3467 54.3965ZM42.6279 53.8428C42.6865 53.8838 42.7568 53.8076 42.8389 53.6143C42.9209 53.4209 43.0029 53.1602 43.085 52.832C43.1729 52.5098 43.2549 52.1494 43.3311 51.751C43.4131 51.3525 43.4834 50.9688 43.542 50.5996C43.6064 50.2305 43.6562 49.9053 43.6914 49.624C43.7266 49.3428 43.7412 49.1553 43.7354 49.0615C43.4717 49.29 43.2402 49.5537 43.041 49.8525C42.8418 50.1572 42.6777 50.4795 42.5488 50.8193C42.4258 51.165 42.3408 51.5166 42.2939 51.874C42.2471 52.2373 42.2412 52.5947 42.2764 52.9463C42.2822 52.999 42.291 53.0664 42.3027 53.1484C42.3203 53.2363 42.335 53.3213 42.3467 53.4033C42.3643 53.4854 42.3789 53.5557 42.3906 53.6143C42.4023 53.6729 42.4111 53.7051 42.417 53.7109L42.6279 53.8428ZM50.3184 48.9297C50.1484 48.8008 50.0225 48.6602 49.9404 48.5078C49.8584 48.3496 49.8027 48.1855 49.7734 48.0156C49.75 47.8398 49.75 47.6611 49.7734 47.4795C49.8027 47.292 49.8438 47.1045 49.8965 46.917C49.9316 46.7998 49.9639 46.6592 49.9932 46.4951C50.0283 46.3311 50.0693 46.167 50.1162 46.0029C50.1631 45.833 50.2188 45.6777 50.2832 45.5371C50.3477 45.3906 50.4268 45.2764 50.5205 45.1943C50.5791 45.1416 50.6553 45.1035 50.749 45.0801C50.8428 45.0508 50.9395 45.0361 51.0391 45.0361C51.1387 45.0303 51.2354 45.0303 51.3291 45.0361C51.4229 45.042 51.499 45.0479 51.5576 45.0537C51.8154 45.0713 52.0146 45.1592 52.1553 45.3174C52.2959 45.4697 52.3896 45.6602 52.4365 45.8887C52.4834 46.1172 52.4893 46.3721 52.4541 46.6533C52.4248 46.9346 52.3604 47.2129 52.2607 47.4883C52.167 47.7578 52.0469 48.0127 51.9004 48.2529C51.7539 48.4932 51.5928 48.6895 51.417 48.8418C51.2471 48.9883 51.0654 49.0762 50.8721 49.1055C50.6846 49.1348 50.5 49.0762 50.3184 48.9297ZM50.4502 48.4463C50.5967 48.5635 50.7549 48.5898 50.9248 48.5254C51.0947 48.4609 51.2559 48.3408 51.4082 48.165C51.5664 47.9893 51.707 47.7783 51.8301 47.5322C51.9531 47.2803 52.041 47.0312 52.0938 46.7852C52.1465 46.5332 52.1553 46.3018 52.1201 46.0908C52.085 45.874 51.9912 45.7129 51.8389 45.6074C51.6221 45.4609 51.417 45.417 51.2236 45.4756C51.0303 45.5283 50.8604 45.6426 50.7139 45.8184C50.5674 45.9883 50.4443 46.2021 50.3447 46.46C50.251 46.7178 50.1895 46.9756 50.1602 47.2334C50.1309 47.4912 50.1367 47.7314 50.1777 47.9541C50.2246 48.1768 50.3154 48.3408 50.4502 48.4463ZM61.665 48.9297C61.5244 48.8887 61.3955 48.8154 61.2783 48.71C61.1611 48.5986 61.0557 48.4697 60.9619 48.3232C60.8682 48.1709 60.7861 48.0098 60.7158 47.8398C60.6455 47.6641 60.5811 47.4912 60.5225 47.3213C60.4697 47.1455 60.4229 46.9814 60.3818 46.8291C60.3408 46.6768 60.3057 46.5449 60.2764 46.4336H60.2061C60.1357 46.5859 60.0273 46.7705 59.8809 46.9873C59.7402 47.1982 59.582 47.4033 59.4062 47.6025C59.2305 47.8018 59.043 47.9746 58.8438 48.1211C58.6504 48.2676 58.4658 48.3555 58.29 48.3848C58.1143 48.4082 57.9561 48.3555 57.8154 48.2266C57.6748 48.0918 57.5723 47.8428 57.5078 47.4795C57.4785 46.9229 57.458 46.3691 57.4463 45.8184C57.4346 45.2676 57.4346 44.7139 57.4463 44.1572C57.4639 44.1338 57.4932 44.1045 57.5342 44.0693C57.5811 44.0342 57.6279 44.0107 57.6748 43.999C57.7217 43.9873 57.7627 43.9961 57.7979 44.0254C57.8389 44.0488 57.8594 44.1133 57.8594 44.2188V47.1279C57.8594 47.1807 57.8652 47.2422 57.877 47.3125C57.8945 47.3828 57.918 47.4531 57.9473 47.5234C57.9824 47.5879 58.0205 47.6494 58.0615 47.708C58.1025 47.7607 58.1494 47.7988 58.2021 47.8223C58.4131 47.9102 58.6035 47.9102 58.7734 47.8223C58.9434 47.7285 59.0957 47.582 59.2305 47.3828C59.3711 47.1836 59.4971 46.9492 59.6084 46.6797C59.7256 46.4043 59.8311 46.1348 59.9248 45.8711C60.0186 45.6074 60.1035 45.3643 60.1797 45.1416C60.2617 44.9131 60.3408 44.7432 60.417 44.6318C60.4287 44.6377 60.4404 44.6523 60.4521 44.6758C60.4697 44.6934 60.4814 44.7051 60.4873 44.7109C60.5049 44.7344 60.54 44.7812 60.5928 44.8516C60.6455 44.916 60.6777 44.96 60.6895 44.9834C60.6895 45.0889 60.6895 45.2354 60.6895 45.4229C60.6953 45.6045 60.707 45.8066 60.7246 46.0293C60.7422 46.2461 60.7686 46.4746 60.8037 46.7148C60.8389 46.9492 60.8857 47.1748 60.9443 47.3916C61.0088 47.6084 61.0879 47.8047 61.1816 47.9805C61.2812 48.1504 61.3984 48.2822 61.5332 48.376C61.6738 48.4639 61.835 48.5049 62.0166 48.499C62.2041 48.4873 62.4209 48.4053 62.667 48.2529C62.79 48.1768 62.8633 48.1064 62.8867 48.042C62.9102 47.9775 62.9189 47.9131 62.9131 47.8486C62.9072 47.7783 62.9014 47.708 62.8955 47.6377C62.8955 47.5674 62.9365 47.4824 63.0186 47.3828C63.165 47.3359 63.2764 47.3535 63.3525 47.4355C63.4287 47.5176 63.4697 47.6318 63.4756 47.7783C63.4873 47.9248 63.458 48.0859 63.3877 48.2617C63.3232 48.4316 63.2148 48.5811 63.0625 48.71C62.916 48.8389 62.7256 48.9326 62.4912 48.9912C62.2627 49.0439 61.9873 49.0234 61.665 48.9297ZM70.5068 48.7627C70.2725 48.6279 70.0879 48.4932 69.9531 48.3584C69.8242 48.2178 69.7012 48.083 69.584 47.9541C69.4668 47.8193 69.332 47.6934 69.1797 47.5762C69.0273 47.4531 68.8164 47.3447 68.5469 47.251C68.5059 47.3682 68.4736 47.5059 68.4502 47.6641C68.4268 47.8223 68.4062 47.9834 68.3887 48.1475C68.377 48.3057 68.3652 48.458 68.3535 48.6045C68.3477 48.7451 68.3389 48.8535 68.3271 48.9297C68.251 49.0234 68.1777 49.0645 68.1074 49.0527C68.0371 49.041 67.9727 49.0059 67.9141 48.9473C67.8613 48.8828 67.8145 48.8096 67.7734 48.7275C67.7383 48.6396 67.7178 48.5723 67.7119 48.5254C67.8467 48.209 67.9375 47.8896 67.9844 47.5674C68.0371 47.2451 68.0605 46.9141 68.0547 46.5742C68.0547 46.2344 68.0371 45.8828 68.002 45.5195C67.9668 45.1562 67.9375 44.7754 67.9141 44.377C67.9434 44.3301 67.9814 44.292 68.0283 44.2627C68.0811 44.2334 68.1367 44.2305 68.1953 44.2539C68.2715 44.166 68.3711 44.0693 68.4941 43.9639C68.6172 43.8525 68.749 43.7529 68.8896 43.665C69.0361 43.5713 69.1855 43.4951 69.3379 43.4365C69.4961 43.3779 69.6426 43.3545 69.7773 43.3662C69.9121 43.3721 70.0293 43.4219 70.1289 43.5156C70.2344 43.6094 70.3105 43.7617 70.3574 43.9727C70.4043 44.2773 70.3955 44.5615 70.3311 44.8252C70.2666 45.0889 70.1611 45.3408 70.0146 45.5811C69.874 45.8154 69.6953 46.0381 69.4785 46.249C69.2617 46.4541 69.0215 46.6533 68.7578 46.8467C68.7402 46.8818 68.7461 46.917 68.7754 46.9521C68.8105 46.9814 68.8516 47.0107 68.8984 47.04C68.9512 47.0635 69.0039 47.084 69.0566 47.1016C69.1094 47.1191 69.1475 47.1309 69.1709 47.1367C69.2881 47.2188 69.417 47.3301 69.5576 47.4707C69.6982 47.6055 69.8447 47.7461 69.9971 47.8926C70.1553 48.0332 70.3135 48.1621 70.4717 48.2793C70.6357 48.3965 70.7969 48.4727 70.9551 48.5078C71.1133 48.5371 71.2656 48.5137 71.4121 48.4375C71.5645 48.3613 71.708 48.2002 71.8428 47.9541H71.9834C72.0068 48.1299 71.9775 48.2939 71.8955 48.4463C71.8193 48.5928 71.708 48.707 71.5615 48.7891C71.4209 48.8711 71.2568 48.915 71.0693 48.9209C70.8818 48.9268 70.6943 48.874 70.5068 48.7627ZM68.4766 45.8711C68.4824 45.8945 68.4883 45.9385 68.4941 46.0029C68.5 46.0615 68.5059 46.126 68.5117 46.1963C68.5234 46.2607 68.5322 46.3223 68.5381 46.3809C68.5439 46.4395 68.5469 46.4805 68.5469 46.5039C68.7988 46.4043 69.0186 46.249 69.2061 46.0381C69.3936 45.8271 69.5459 45.6016 69.6631 45.3613C69.7803 45.1152 69.8564 44.8721 69.8916 44.6318C69.9326 44.3857 69.9326 44.1836 69.8916 44.0254C69.8506 43.8672 69.7627 43.7705 69.6279 43.7354C69.499 43.6943 69.3232 43.7529 69.1006 43.9111C68.8896 44.0635 68.7344 44.2129 68.6348 44.3594C68.541 44.5 68.4766 44.6494 68.4414 44.8076C68.4121 44.96 68.4062 45.124 68.4238 45.2998C68.4414 45.4697 68.459 45.6602 68.4766 45.8711ZM77.5381 49.0439C77.4854 49.0146 77.4121 48.9795 77.3184 48.9385C77.2305 48.8916 77.1367 48.8389 77.0371 48.7803C76.9375 48.7217 76.8408 48.6602 76.7471 48.5957C76.6592 48.5254 76.5859 48.4521 76.5273 48.376C76.4688 48.2939 76.4365 48.209 76.4307 48.1211C76.4248 48.0332 76.457 47.9424 76.5273 47.8486C76.5391 47.8369 76.5771 47.8691 76.6416 47.9453C76.7119 48.0156 76.7998 48.1035 76.9053 48.209C77.0107 48.3086 77.1309 48.4141 77.2656 48.5254C77.4004 48.6309 77.5381 48.7129 77.6787 48.7715C77.8193 48.8242 77.96 48.8418 78.1006 48.8242C78.2412 48.8008 78.3701 48.7129 78.4873 48.5605C78.5342 48.4961 78.5664 48.4229 78.584 48.3408C78.6074 48.2529 78.6162 48.165 78.6104 48.0771C78.6045 47.9893 78.5898 47.9043 78.5664 47.8223C78.5488 47.7344 78.5225 47.6553 78.4873 47.585C78.4111 47.4209 78.291 47.2539 78.127 47.084C77.9688 46.9141 77.7959 46.7412 77.6084 46.5654C77.4268 46.3896 77.248 46.2109 77.0723 46.0293C76.8965 45.8477 76.7588 45.6631 76.6592 45.4756C76.5596 45.2881 76.5098 45.1006 76.5098 44.9131C76.5156 44.7197 76.6035 44.5234 76.7734 44.3242C76.9082 44.1719 77.0752 44.0957 77.2744 44.0957C77.4795 44.0957 77.6787 44.1396 77.8721 44.2275C78.0713 44.3154 78.2441 44.4297 78.3906 44.5703C78.543 44.7051 78.6367 44.8369 78.6719 44.9658C78.6895 45.0186 78.6953 45.0771 78.6895 45.1416C78.6836 45.2002 78.666 45.25 78.6367 45.291C78.6074 45.332 78.5635 45.3613 78.5049 45.3789C78.4521 45.3906 78.3818 45.3789 78.2939 45.3438C78.1943 45.3086 78.1152 45.2324 78.0566 45.1152C78.0039 44.998 77.9453 44.8838 77.8809 44.7725C77.8223 44.6553 77.7432 44.5645 77.6436 44.5C77.5498 44.4297 77.4092 44.4238 77.2217 44.4824C77.0107 44.5527 76.8965 44.6611 76.8789 44.8076C76.8613 44.9482 76.9023 45.1123 77.002 45.2998C77.1074 45.4814 77.248 45.6748 77.4238 45.8799C77.6055 46.0791 77.7871 46.2695 77.9688 46.4512C78.1562 46.6328 78.3232 46.7969 78.4697 46.9434C78.6162 47.084 78.707 47.1865 78.7422 47.251C78.8125 47.3857 78.874 47.5557 78.9268 47.7607C78.9854 47.96 79.0059 48.1562 78.9883 48.3496C78.9707 48.543 78.9062 48.7129 78.7949 48.8594C78.6836 49 78.4961 49.0791 78.2324 49.0967C78.1973 49.1025 78.1475 49.1055 78.083 49.1055C78.0244 49.1113 77.9629 49.1143 77.8984 49.1143C77.834 49.1143 77.7666 49.1084 77.6963 49.0967C77.6318 49.085 77.5791 49.0674 77.5381 49.0439ZM85.6855 48.9297C85.4629 48.8359 85.293 48.7158 85.1758 48.5693C85.0645 48.4229 84.9824 48.2617 84.9297 48.0859C84.877 47.9102 84.8447 47.7227 84.833 47.5234C84.8213 47.3242 84.8066 47.1221 84.7891 46.917C84.6543 46.9404 84.5225 46.9521 84.3936 46.9521C84.2646 46.9463 84.1504 46.9346 84.0508 46.917C83.957 46.8936 83.8896 46.8643 83.8486 46.8291C83.8076 46.7881 83.8018 46.7471 83.8311 46.7061C83.8662 46.6592 83.9482 46.6123 84.0771 46.5654C84.2061 46.5186 84.3965 46.4746 84.6484 46.4336C84.6836 46.4336 84.7334 46.416 84.7979 46.3809C84.8682 46.3457 84.9092 46.3193 84.9209 46.3018C84.9619 46.2432 85 46.1436 85.0352 46.0029C85.0703 45.8564 85.1055 45.6953 85.1406 45.5195C85.1816 45.3438 85.2285 45.168 85.2812 44.9922C85.3398 44.8105 85.4102 44.6553 85.4922 44.5264C85.5801 44.3975 85.6826 44.3066 85.7998 44.2539C85.9229 44.2012 86.0723 44.2129 86.248 44.2891C86.2656 44.3008 86.2891 44.3242 86.3184 44.3594C86.3535 44.3887 86.3887 44.4209 86.4238 44.4561C86.459 44.4912 86.4912 44.5264 86.5205 44.5615C86.5557 44.5908 86.5791 44.6143 86.5908 44.6318C86.6143 44.9189 86.5967 45.1621 86.5381 45.3613C86.4795 45.5605 86.4004 45.7305 86.3008 45.8711C86.2012 46.0059 86.0898 46.1201 85.9668 46.2139C85.8438 46.3076 85.7266 46.3984 85.6152 46.4863C85.5039 46.5684 85.4072 46.6533 85.3252 46.7412C85.249 46.8291 85.208 46.9375 85.2021 47.0664C85.1904 47.2188 85.1846 47.3594 85.1846 47.4883C85.1846 47.6113 85.1992 47.7285 85.2285 47.8398C85.2578 47.9512 85.3076 48.0566 85.3779 48.1562C85.4482 48.2559 85.5508 48.3525 85.6855 48.4463C85.7852 48.5166 85.9082 48.5342 86.0547 48.499C86.2012 48.4639 86.3506 48.4023 86.5029 48.3145C86.6553 48.2266 86.8047 48.127 86.9512 48.0156C87.0977 47.9043 87.2236 47.8105 87.3291 47.7344C87.4346 47.6523 87.5107 47.5996 87.5576 47.5762C87.6045 47.5527 87.6045 47.5879 87.5576 47.6816C87.4756 47.875 87.3789 48.0684 87.2676 48.2617C87.1562 48.4551 87.0244 48.6191 86.8721 48.7539C86.7197 48.8887 86.5439 48.9766 86.3447 49.0176C86.1514 49.0645 85.9316 49.0352 85.6855 48.9297ZM85.4043 45.7393C85.3984 45.7686 85.3867 45.8271 85.3691 45.915C85.3516 46.0029 85.3428 46.0615 85.3428 46.0908C85.3486 46.0967 85.3574 46.0996 85.3691 46.0996C85.3867 46.0996 85.3984 46.0967 85.4043 46.0908C85.4219 46.0791 85.4482 46.0615 85.4834 46.0381C85.5186 46.0088 85.5537 45.9824 85.5889 45.959C85.624 45.9297 85.6562 45.9033 85.6855 45.8799C85.7207 45.8506 85.7441 45.8301 85.7559 45.8184C85.9316 45.6426 86.0547 45.4814 86.125 45.335C86.2012 45.1826 86.2393 45.0596 86.2393 44.9658C86.2393 44.8721 86.207 44.8105 86.1426 44.7812C86.084 44.7461 86.0107 44.7549 85.9229 44.8076C85.8408 44.8604 85.7529 44.9629 85.6592 45.1152C85.5654 45.2617 85.4805 45.4697 85.4043 45.7393ZM92.7432 48.8682C92.7197 48.7744 92.7021 48.6455 92.6904 48.4814C92.6787 48.3174 92.6729 48.1357 92.6729 47.9365C92.6729 47.7314 92.6729 47.5176 92.6729 47.2949C92.6787 47.0723 92.6846 46.8555 92.6904 46.6445C92.6963 46.4336 92.6963 46.2373 92.6904 46.0557C92.6904 45.874 92.6846 45.7246 92.6729 45.6074C92.667 45.5195 92.6582 45.3906 92.6465 45.2207C92.6406 45.0449 92.6318 44.8486 92.6201 44.6318C92.6084 44.415 92.5938 44.1865 92.5762 43.9463C92.5645 43.7061 92.5557 43.4775 92.5498 43.2607C92.5439 43.0381 92.541 42.8359 92.541 42.6543C92.541 42.4668 92.5469 42.3232 92.5586 42.2236C92.6465 42.1475 92.7168 42.168 92.7695 42.2852C92.8281 42.3965 92.8721 42.5605 92.9014 42.7773C92.9307 42.9883 92.9482 43.2285 92.9541 43.498C92.9658 43.7676 92.9717 44.0225 92.9717 44.2627C92.9717 44.5029 92.9688 44.7051 92.9629 44.8691C92.957 45.0332 92.9541 45.1182 92.9541 45.124C92.9834 45.6748 93.001 46.2197 93.0068 46.7588C93.0186 47.292 93.0479 47.8311 93.0947 48.376C93.1533 48.4873 93.1826 48.6074 93.1826 48.7363C93.1885 48.8594 93.1709 48.959 93.1299 49.0352C93.0947 49.1113 93.042 49.1436 92.9717 49.1318C92.9014 49.1201 92.8252 49.0322 92.7432 48.8682ZM99.3262 46.5039C99.1914 46.4863 99.0391 46.4951 98.8691 46.5303C98.6992 46.5596 98.5498 46.5977 98.4209 46.6445C98.3623 46.668 98.3037 46.6533 98.2451 46.6006C98.1924 46.5479 98.1543 46.4863 98.1309 46.416C98.1074 46.3398 98.1045 46.2695 98.1221 46.2051C98.1396 46.1406 98.1924 46.1025 98.2803 46.0908C98.3037 46.0908 98.3682 46.0938 98.4736 46.0996C98.5791 46.1055 98.6904 46.1084 98.8076 46.1084C98.9307 46.1025 99.042 46.0908 99.1416 46.0732C99.2471 46.0498 99.3086 46.0117 99.3262 45.959C99.3203 45.7129 99.3115 45.4492 99.2998 45.168C99.2881 44.8867 99.2822 44.6025 99.2822 44.3154C99.2822 44.0225 99.2939 43.7354 99.3174 43.4541C99.3467 43.167 99.3936 42.8916 99.458 42.6279C99.499 42.4756 99.5576 42.3701 99.6338 42.3115C99.7158 42.2529 99.8447 42.2441 100.021 42.2852C100.161 42.3145 100.308 42.3877 100.46 42.5049C100.612 42.6162 100.753 42.748 100.882 42.9004C101.017 43.0527 101.131 43.2168 101.225 43.3926C101.324 43.5625 101.383 43.7236 101.4 43.876C101.406 43.9346 101.38 43.9873 101.321 44.0342C101.269 44.0811 101.207 44.1016 101.137 44.0957C101.066 44.0898 100.999 44.0459 100.935 43.9639C100.876 43.876 100.847 43.7295 100.847 43.5244C100.847 43.5127 100.838 43.4922 100.82 43.4629C100.803 43.4277 100.788 43.4043 100.776 43.3926L100.152 42.7686C100.035 42.7217 99.9443 42.7305 99.8799 42.7949C99.8213 42.8535 99.7773 42.9326 99.748 43.0322C99.7188 43.1318 99.6982 43.2373 99.6865 43.3486C99.6807 43.46 99.6748 43.5449 99.6689 43.6035C99.6514 43.8262 99.6338 44.0283 99.6162 44.21C99.6045 44.3916 99.5957 44.5703 99.5898 44.7461C99.5898 44.9219 99.5957 45.1006 99.6074 45.2822C99.6191 45.4639 99.6396 45.666 99.6689 45.8887C99.6924 45.8945 99.7744 45.8711 99.915 45.8184C100.062 45.7598 100.231 45.6982 100.425 45.6338C100.624 45.5635 100.829 45.499 101.04 45.4404C101.251 45.3818 101.433 45.3496 101.585 45.3438C101.743 45.3379 101.854 45.3701 101.919 45.4404C101.989 45.5049 101.978 45.6309 101.884 45.8184C101.849 45.8828 101.796 45.915 101.726 45.915C101.655 45.9092 101.594 45.9004 101.541 45.8887C101.5 45.9004 101.43 45.9238 101.33 45.959C101.23 45.9883 101.125 46.0234 101.014 46.0645C100.908 46.0996 100.806 46.1348 100.706 46.1699C100.606 46.1992 100.539 46.2197 100.504 46.2314C100.486 46.2373 100.448 46.2461 100.39 46.2578C100.337 46.2695 100.278 46.2842 100.214 46.3018C100.155 46.3193 100.097 46.334 100.038 46.3457C99.9854 46.3574 99.9531 46.3662 99.9414 46.3721C99.9238 46.3779 99.9033 46.3838 99.8799 46.3896C99.8623 46.3896 99.8418 46.3955 99.8184 46.4072C99.7949 46.4189 99.7686 46.4277 99.7393 46.4336V48.9297C99.7393 48.9766 99.7158 49.0059 99.6689 49.0176C99.6279 49.0293 99.5811 49.0264 99.5283 49.0088C99.4814 48.9971 99.4346 48.9736 99.3877 48.9385C99.3467 48.8975 99.3262 48.8477 99.3262 48.7891V46.5039Z" fill="white"/>
    <path d="M106 47L162 47" stroke="#F1F1F1" stroke-width="0.5" stroke-linecap="round"/>
</svg>
