<svg xmlns="http://www.w3.org/2000/svg" width="37" height="36" viewBox="0 0 37 36" fill="none">
    <g clip-path="url(#clip0_1026_2798)">
        <path d="M34.8235 23.3021C34.0829 22.7859 33.2083 22.5953 32.4359 22.4275C32.368 22.4124 32.2978 22.4109 32.2293 22.423C32.1609 22.4352 32.0955 22.4608 32.037 22.4983C31.9785 22.5359 31.928 22.5847 31.8884 22.6418C31.8488 22.699 31.8209 22.7634 31.8064 22.8314C31.7914 22.8993 31.7901 22.9696 31.8023 23.038C31.8146 23.1065 31.8402 23.1719 31.8778 23.2304C31.9154 23.2889 31.9641 23.3395 32.0213 23.3791C32.0785 23.4188 32.1429 23.4467 32.2109 23.4614C32.9187 23.616 33.6509 23.7759 34.2184 24.1708C34.6567 24.4763 35.0723 25.0624 34.9479 25.6283C34.769 26.4415 33.6053 26.8025 32.9266 26.946C30.54 27.4505 28.0232 27.4278 25.5916 27.4076C24.185 27.3955 22.7296 27.3833 21.2976 27.4701C20.2387 27.5347 19.1323 27.6766 18.2169 28.2695C17.2725 28.8821 16.5122 30.1934 16.9643 31.4179C17.0517 31.6541 17.1719 31.8574 17.2878 32.0543C17.436 32.3068 17.5647 32.5244 17.5716 32.7251C17.58 32.9935 17.3513 33.2545 17.1205 33.3942C16.8039 33.5848 16.3973 33.6626 15.9722 33.7331C11.7316 34.4282 7.01086 34.5457 2.92487 34.0666C3.12498 33.03 3.50034 31.8992 4.06151 30.6334C4.94775 30.6132 5.92239 30.4973 6.97169 30.2818C10.037 29.6677 13.1076 28.2912 15.8446 26.3006C16.8452 25.5806 17.8246 24.8236 18.7564 24.0454C18.8411 23.9765 18.8729 23.8601 18.8411 23.7542C18.8225 23.7037 18.7895 23.6597 18.7462 23.6278C18.703 23.5958 18.6513 23.5772 18.5976 23.5742C17.6764 23.5424 16.3952 23.3571 15.0876 22.7589C16.5805 22.7854 19.2329 22.6265 21.5835 21.5201C21.6095 21.5092 21.6329 21.4929 21.6523 21.4724C23.2723 19.9318 24.7811 18.2906 26.1417 16.5965C26.1725 16.5583 26.1918 16.5122 26.1974 16.4635C26.203 16.4148 26.1947 16.3654 26.1735 16.3212C26.153 16.2763 26.1203 16.2381 26.0791 16.2109C26.0379 16.1837 25.9899 16.1688 25.9405 16.1677C25.0935 16.1571 23.5529 16.0089 21.9858 15.2254C23.4152 15.1248 26.2158 14.8389 27.9523 14.1295C27.9999 14.1136 28.037 14.0818 28.0687 14.0395C29.8476 11.4983 31.314 8.86712 32.4364 6.22006C32.4682 6.14594 32.4629 6.06123 32.4258 5.98712C32.4059 5.95329 32.3792 5.92402 32.3472 5.90122C32.3153 5.87841 32.279 5.86259 32.2405 5.85476C31.3193 5.68535 30.3929 5.65888 29.7046 5.68006C30.8693 5.08712 32.0023 4.89123 32.8229 4.83829C32.8734 4.83351 32.9216 4.81459 32.9618 4.78369C33.0021 4.75278 33.0328 4.71116 33.0505 4.66359C33.7758 2.71535 34.0087 1.54535 34.014 1.4977C34.0268 1.43749 34.0178 1.37472 33.9888 1.32047C33.9597 1.26623 33.9124 1.22399 33.8552 1.20123C33.707 1.143 30.1705 -0.238768 24.654 1.33359C24.6011 1.34947 24.5587 1.37594 24.527 1.41829C23.4523 2.673 22.6899 4.34064 22.2664 5.42594C22.2187 4.473 22.3087 3.48829 22.5364 2.49829C22.5629 2.403 22.5258 2.30241 22.4517 2.23888C22.3776 2.17535 22.2717 2.15947 22.1817 2.19653C20.1805 3.0277 18.1846 4.17123 16.247 5.59535C16.2152 5.61653 16.194 5.64829 16.1729 5.68006C15.257 7.30006 14.9764 9.55535 14.8917 10.9159C14.5211 9.93123 14.304 8.86712 14.2405 7.73947C14.2379 7.69047 14.2217 7.64318 14.1936 7.60294C14.1656 7.56271 14.1268 7.53114 14.0817 7.51182C14.0356 7.49227 13.9849 7.48587 13.9354 7.49335C13.8859 7.50082 13.8394 7.52188 13.8011 7.55417C12.6523 8.55476 11.4823 9.69829 10.3176 10.9477C10.3017 10.9636 10.2911 10.9795 10.2805 11.0006C9.35404 12.6206 9.07875 14.8971 8.99404 16.2577C8.70816 15.5006 8.51228 14.6906 8.40639 13.8436C8.40166 13.7921 8.38141 13.7433 8.34832 13.7036C8.31523 13.6639 8.27087 13.6352 8.2211 13.6212C8.11522 13.5948 8.00934 13.6265 7.94051 13.7059C6.63286 15.3206 5.33051 17.0942 4.07051 18.9948C2.83698 20.8371 2.05875 22.8383 1.80992 24.7759C1.53463 26.9201 1.89463 28.4024 2.30228 29.3236C9.42286 13.9018 21.7264 9.34359 21.8482 9.30123C21.9135 9.27748 21.9829 9.26686 22.0523 9.26997C22.1218 9.27309 22.19 9.28988 22.2529 9.31939C22.3159 9.3489 22.3724 9.39055 22.4192 9.44194C22.466 9.49333 22.5023 9.55346 22.5258 9.61888C22.5496 9.68422 22.5602 9.75361 22.5571 9.82307C22.5539 9.89253 22.5372 9.96069 22.5076 10.0236C22.4781 10.0866 22.4365 10.1431 22.3851 10.1899C22.3337 10.2368 22.2736 10.273 22.2082 10.2965C22.0864 10.3389 10.164 14.7754 3.24463 29.8106C3.14934 30.0224 3.05934 30.2342 2.97992 30.4354L2.98839 30.4449C2.34992 31.9256 1.95657 33.2391 1.78769 34.4515C1.76838 34.5905 1.80511 34.7316 1.8898 34.8436C1.97449 34.9556 2.1002 35.0293 2.23928 35.0487H2.24298C4.09222 35.2938 6.08122 35.4155 8.10886 35.4155C10.8015 35.4155 13.5602 35.2011 16.1432 34.7776C16.653 34.6945 17.1904 34.5886 17.6685 34.3001C18.2815 33.9284 18.65 33.3116 18.6293 32.6907C18.614 32.2195 18.3937 31.8462 18.2005 31.5169C18.1031 31.3528 18.0126 31.1982 17.958 31.0511C17.7055 30.3681 18.1846 29.5528 18.7929 29.1584C19.5383 28.6751 20.5098 28.5792 21.3622 28.5268C22.7572 28.4421 24.1935 28.4543 25.5826 28.4665C28.0719 28.4876 30.6465 28.5099 33.1458 27.9821C34.7706 27.639 35.751 26.9036 35.9819 25.8554C36.2127 24.8093 35.5663 23.8193 34.8235 23.3021Z" fill="#FF792F"/>
    </g>
    <defs>
        <clipPath id="clip0_1026_2798">
            <rect width="36" height="36" fill="white" transform="translate(0.871277)"/>
        </clipPath>
    </defs>
</svg>