<svg xmlns="http://www.w3.org/2000/svg" width="40" height="40" viewBox="0 0 40 40" fill="none">
    <circle cx="20" cy="20" r="20" fill="#FF792F"/>
    <path d="M31.3946 13.5089C29.9097 13.5089 28.5368 13.0156 27.4384 12.1868C26.1773 11.2359 25.267 9.83747 24.9467 8.23059C24.8653 7.83395 24.8246 7.42206 24.8196 7H20.5735V18.5991L20.5684 24.9503C20.5684 26.6487 19.4599 28.0878 17.9293 28.5963C17.4818 28.7438 17.0038 28.815 16.5055 28.7845C15.8647 28.7489 15.2698 28.5556 14.746 28.2455C13.6375 27.5844 12.89 26.3843 12.8696 25.0063C12.8391 22.8604 14.5731 21.106 16.719 21.106C17.1411 21.106 17.5479 21.1772 17.9293 21.2992V18.1312V16.9973C17.5276 16.9362 17.1208 16.9057 16.7038 16.9057C14.3545 16.9057 12.1577 17.8821 10.5864 19.6415C9.40161 20.9687 8.6897 22.6671 8.57783 24.4469C8.43544 26.781 9.28974 29.0031 10.9475 30.6405C11.1916 30.8795 11.4458 31.1033 11.7153 31.3118C13.1341 32.405 14.8732 33 16.7038 33C17.1157 33 17.5276 32.9695 17.9293 32.9085C19.6379 32.6542 21.2142 31.8711 22.4601 30.6405C23.9907 29.1303 24.8348 27.1217 24.845 24.9859L24.8246 15.4972C25.5518 16.0616 26.3502 16.5243 27.2095 16.8854C28.5418 17.4498 29.9555 17.7295 31.4047 17.7295V14.648V13.5038C31.4098 13.5089 31.3946 13.5089 31.3946 13.5089Z" fill="white"/>
</svg>