<svg xmlns="http://www.w3.org/2000/svg" enable-background="new 0 0 48 48" viewBox="0 0 48 48">
    <path fill="#ff792f" d="M24,7.3C13.1,7.3,4.2,16.1,4.2,27S13.1,46.8,24,46.8S43.8,37.9,43.8,27S34.9,7.3,24,7.3z M31.4,29H24c-1.1,0-2-0.9-2-2V16   c0-1.1,0.9-2,2-2c1.1,0,2,0.9,2,2v9.1h5.4c1.1,0,2,0.9,2,2S32.4,29,31.4,29z" class="color000000 svgShape"/>
    <path fill="#ff792f" d="M45.1 3.6c-1.5-1.5-3.6-2.4-5.7-2.4-2.2 0-4.2.8-5.7 2.4-.8.8-.8 2 0 2.8l8.7 8.7c.4.4.9.6 1.4.6s1-.2 1.4-.6c1.5-1.5 2.4-3.6 2.4-5.7C47.5 7.1 46.7 5.1 45.1 3.6zM14.3 3.6c-1.5-1.5-3.6-2.4-5.7-2.4-2.2 0-4.2.8-5.7 2.4-3.2 3.2-3.2 8.3 0 11.5.4.4.9.6 1.4.6s1-.2 1.4-.6l8.7-8.7C15.1 5.6 15.1 4.3 14.3 3.6z" class="color000000 svgShape"/>
</svg>
