<svg width="36" height="31" viewBox="0 0 36 31" fill="none" xmlns="http://www.w3.org/2000/svg">
    <path d="M2.131 30.9541C1.6108 30.9541 1.2742 30.6175 1.1212 29.9443C0.9682 29.6077 0.8917 28.9957 0.8917 28.1083C0.8917 25.4461 0.8611 23.0746 0.7999 20.9938C0.7081 17.995 0.6622 14.8279 0.6622 11.4925V1.3945C0.6622 1.1191 0.7846 0.858997 1.0294 0.614196C1.3048 0.338798 1.5802 0.201099 1.8556 0.201099L7.1341 0.246998C8.1133 0.277598 9.3985 0.292898 10.9897 0.292898C13.2847 0.292898 15.0595 0.277598 16.3141 0.246998L18.0124 0.201099C19.8484 0.139898 21.3631 0.109297 22.5565 0.109297C24.4843 0.109297 26.3203 0.384697 28.0645 0.935498C30.1147 1.5475 31.7824 2.6032 33.0676 4.1026C34.5058 5.7244 35.2249 7.9123 35.2249 10.6663C35.2249 15.3175 34.0468 18.6835 31.6906 20.7643C29.6098 22.7227 26.5039 23.7019 22.3729 23.7019H16.0846C16.1152 24.4057 16.1305 25.1554 16.1305 25.951C16.1305 26.2264 16.1152 26.563 16.0846 26.9608C16.0846 27.328 16.0846 27.8329 16.0846 28.4755C16.0846 29.4853 15.8704 30.1279 15.442 30.4033C15.1054 30.6787 14.4781 30.8164 13.5601 30.8164C12.2137 30.8164 11.2804 30.8317 10.7602 30.8623C8.6488 30.8623 6.9658 30.8929 5.7112 30.9541H2.131ZM18.5632 18.1939C19.2058 18.1939 19.6801 17.5819 19.9861 16.3579C20.2309 15.5317 20.4145 14.3077 20.5369 12.6859C20.5981 11.7985 20.6287 10.804 20.6287 9.7024V9.1975C20.6287 8.7079 20.5522 7.9735 20.3992 6.9943C20.2768 6.4435 20.1391 6.0151 19.9861 5.7091C19.8331 5.3725 19.6342 5.0971 19.3894 4.8829C19.1446 4.6075 18.8692 4.4698 18.5632 4.4698C18.4102 4.4698 18.2725 4.531 18.1501 4.6534C18.0583 4.7758 17.9665 4.9288 17.8747 5.1124C17.5381 5.6632 17.2321 6.8872 16.9567 8.7844C16.8649 9.3352 16.7884 10.1614 16.7272 11.263C16.5742 12.946 16.4977 15.1951 16.4977 18.0103C16.4977 18.0103 16.513 18.0256 16.5436 18.0562C16.5742 18.0868 16.6354 18.1174 16.7272 18.148L17.278 18.1939H18.5632Z" fill="#00BF63"/>
</svg>
