<svg width="166" height="35" viewBox="0 0 166 35" fill="none" xmlns="http://www.w3.org/2000/svg">
    <path d="M40.3467 34.3965C40.1475 34.2969 40.0098 34.0918 39.9336 33.7812C39.8633 33.4707 39.8398 33.1074 39.8633 32.6914C39.8867 32.2754 39.9512 31.8359 40.0566 31.373C40.168 30.9102 40.3086 30.4766 40.4785 30.0723C40.6543 29.668 40.8535 29.3223 41.0762 29.0352C41.3047 28.7539 41.5479 28.5811 41.8057 28.5166C41.8115 28.4814 41.8174 28.4258 41.8232 28.3496C41.8291 28.2676 41.835 28.1826 41.8408 28.0947C41.8467 28.0068 41.8525 27.9248 41.8584 27.8486C41.8643 27.7666 41.8672 27.708 41.8672 27.6729C41.873 27.5439 41.876 27.3799 41.876 27.1807C41.876 26.9756 41.876 26.7793 41.876 26.5918C41.876 26.3984 41.876 26.2344 41.876 26.0996C41.876 25.959 41.873 25.8857 41.8672 25.8799L41.8057 25.8184C41.7588 25.9004 41.665 26.041 41.5244 26.2402C41.3838 26.4395 41.2168 26.6562 41.0234 26.8906C40.8301 27.125 40.6162 27.3594 40.3818 27.5938C40.1475 27.8223 39.9102 28.0127 39.6699 28.165C39.4297 28.3115 39.1953 28.3965 38.9668 28.4199C38.7383 28.4375 38.5303 28.3525 38.3428 28.165C38.249 28.0771 38.1846 27.9424 38.1494 27.7607C38.1201 27.5732 38.1055 27.3682 38.1055 27.1455C38.1113 26.917 38.1289 26.6797 38.1582 26.4336C38.1934 26.1816 38.2314 25.9443 38.2725 25.7217C38.3135 25.4932 38.3516 25.291 38.3867 25.1152C38.4277 24.9336 38.457 24.7988 38.4746 24.7109C38.5039 24.6406 38.5479 24.5967 38.6064 24.5791C38.6709 24.5557 38.7324 24.5527 38.791 24.5703C38.8496 24.582 38.8965 24.6143 38.9316 24.667C38.9727 24.7139 38.9844 24.7725 38.9668 24.8428C38.9023 25.0889 38.8438 25.3262 38.791 25.5547C38.7441 25.7832 38.7031 26.0117 38.668 26.2402C38.6387 26.4688 38.6182 26.7002 38.6064 26.9346C38.6006 27.1689 38.6064 27.415 38.624 27.6729C38.7412 27.8311 38.8848 27.9014 39.0547 27.8838C39.2246 27.8604 39.4062 27.7871 39.5996 27.6641C39.793 27.5352 39.9893 27.3682 40.1885 27.1631C40.3877 26.958 40.5723 26.75 40.7422 26.5391C40.9121 26.3281 41.0586 26.1318 41.1816 25.9502C41.3105 25.7627 41.4014 25.625 41.4541 25.5371C41.5068 25.4492 41.5479 25.3496 41.5771 25.2383C41.6123 25.127 41.6475 25.0186 41.6826 24.9131C41.7236 24.8018 41.7676 24.6963 41.8145 24.5967C41.8672 24.4971 41.9346 24.418 42.0166 24.3594L42.2891 24.6318V28.2354C42.3184 28.2412 42.3857 28.2383 42.4912 28.2266C42.6025 28.2148 42.6992 28.209 42.7812 28.209C42.8633 28.209 42.9102 28.2266 42.9219 28.2617C42.9395 28.291 42.8691 28.3525 42.7109 28.4463C42.6289 28.4932 42.5469 28.543 42.4648 28.5957C42.3887 28.6426 42.3066 28.6836 42.2188 28.7188C42.166 29.2168 42.1162 29.6533 42.0693 30.0283C42.0225 30.4092 41.9697 30.7725 41.9111 31.1182C41.8525 31.4639 41.7822 31.8184 41.7002 32.1816C41.6182 32.5449 41.5156 32.9609 41.3926 33.4297C41.3457 33.5352 41.293 33.6582 41.2344 33.7988C41.1816 33.9453 41.1143 34.0742 41.0322 34.1855C40.9561 34.3027 40.8623 34.3848 40.751 34.4316C40.6396 34.4844 40.5049 34.4727 40.3467 34.3965ZM40.6279 33.8428C40.6865 33.8838 40.7568 33.8076 40.8389 33.6143C40.9209 33.4209 41.0029 33.1602 41.085 32.832C41.1729 32.5098 41.2549 32.1494 41.3311 31.751C41.4131 31.3525 41.4834 30.9688 41.542 30.5996C41.6064 30.2305 41.6562 29.9053 41.6914 29.624C41.7266 29.3428 41.7412 29.1553 41.7354 29.0615C41.4717 29.29 41.2402 29.5537 41.041 29.8525C40.8418 30.1572 40.6777 30.4795 40.5488 30.8193C40.4258 31.165 40.3408 31.5166 40.2939 31.874C40.2471 32.2373 40.2412 32.5947 40.2764 32.9463C40.2822 32.999 40.291 33.0664 40.3027 33.1484C40.3203 33.2363 40.335 33.3213 40.3467 33.4033C40.3643 33.4854 40.3789 33.5557 40.3906 33.6143C40.4023 33.6729 40.4111 33.7051 40.417 33.7109L40.6279 33.8428ZM48.3184 28.9297C48.1484 28.8008 48.0225 28.6602 47.9404 28.5078C47.8584 28.3496 47.8027 28.1855 47.7734 28.0156C47.75 27.8398 47.75 27.6611 47.7734 27.4795C47.8027 27.292 47.8438 27.1045 47.8965 26.917C47.9316 26.7998 47.9639 26.6592 47.9932 26.4951C48.0283 26.3311 48.0693 26.167 48.1162 26.0029C48.1631 25.833 48.2188 25.6777 48.2832 25.5371C48.3477 25.3906 48.4268 25.2764 48.5205 25.1943C48.5791 25.1416 48.6553 25.1035 48.749 25.0801C48.8428 25.0508 48.9395 25.0361 49.0391 25.0361C49.1387 25.0303 49.2354 25.0303 49.3291 25.0361C49.4229 25.042 49.499 25.0479 49.5576 25.0537C49.8154 25.0713 50.0146 25.1592 50.1553 25.3174C50.2959 25.4697 50.3896 25.6602 50.4365 25.8887C50.4834 26.1172 50.4893 26.3721 50.4541 26.6533C50.4248 26.9346 50.3604 27.2129 50.2607 27.4883C50.167 27.7578 50.0469 28.0127 49.9004 28.2529C49.7539 28.4932 49.5928 28.6895 49.417 28.8418C49.2471 28.9883 49.0654 29.0762 48.8721 29.1055C48.6846 29.1348 48.5 29.0762 48.3184 28.9297ZM48.4502 28.4463C48.5967 28.5635 48.7549 28.5898 48.9248 28.5254C49.0947 28.4609 49.2559 28.3408 49.4082 28.165C49.5664 27.9893 49.707 27.7783 49.8301 27.5322C49.9531 27.2803 50.041 27.0312 50.0938 26.7852C50.1465 26.5332 50.1553 26.3018 50.1201 26.0908C50.085 25.874 49.9912 25.7129 49.8389 25.6074C49.6221 25.4609 49.417 25.417 49.2236 25.4756C49.0303 25.5283 48.8604 25.6426 48.7139 25.8184C48.5674 25.9883 48.4443 26.2021 48.3447 26.46C48.251 26.7178 48.1895 26.9756 48.1602 27.2334C48.1309 27.4912 48.1367 27.7314 48.1777 27.9541C48.2246 28.1768 48.3154 28.3408 48.4502 28.4463ZM59.665 28.9297C59.5244 28.8887 59.3955 28.8154 59.2783 28.71C59.1611 28.5986 59.0557 28.4697 58.9619 28.3232C58.8682 28.1709 58.7861 28.0098 58.7158 27.8398C58.6455 27.6641 58.5811 27.4912 58.5225 27.3213C58.4697 27.1455 58.4229 26.9814 58.3818 26.8291C58.3408 26.6768 58.3057 26.5449 58.2764 26.4336H58.2061C58.1357 26.5859 58.0273 26.7705 57.8809 26.9873C57.7402 27.1982 57.582 27.4033 57.4062 27.6025C57.2305 27.8018 57.043 27.9746 56.8438 28.1211C56.6504 28.2676 56.4658 28.3555 56.29 28.3848C56.1143 28.4082 55.9561 28.3555 55.8154 28.2266C55.6748 28.0918 55.5723 27.8428 55.5078 27.4795C55.4785 26.9229 55.458 26.3691 55.4463 25.8184C55.4346 25.2676 55.4346 24.7139 55.4463 24.1572C55.4639 24.1338 55.4932 24.1045 55.5342 24.0693C55.5811 24.0342 55.6279 24.0107 55.6748 23.999C55.7217 23.9873 55.7627 23.9961 55.7979 24.0254C55.8389 24.0488 55.8594 24.1133 55.8594 24.2188V27.1279C55.8594 27.1807 55.8652 27.2422 55.877 27.3125C55.8945 27.3828 55.918 27.4531 55.9473 27.5234C55.9824 27.5879 56.0205 27.6494 56.0615 27.708C56.1025 27.7607 56.1494 27.7988 56.2021 27.8223C56.4131 27.9102 56.6035 27.9102 56.7734 27.8223C56.9434 27.7285 57.0957 27.582 57.2305 27.3828C57.3711 27.1836 57.4971 26.9492 57.6084 26.6797C57.7256 26.4043 57.8311 26.1348 57.9248 25.8711C58.0186 25.6074 58.1035 25.3643 58.1797 25.1416C58.2617 24.9131 58.3408 24.7432 58.417 24.6318C58.4287 24.6377 58.4404 24.6523 58.4521 24.6758C58.4697 24.6934 58.4814 24.7051 58.4873 24.7109C58.5049 24.7344 58.54 24.7812 58.5928 24.8516C58.6455 24.916 58.6777 24.96 58.6895 24.9834C58.6895 25.0889 58.6895 25.2354 58.6895 25.4229C58.6953 25.6045 58.707 25.8066 58.7246 26.0293C58.7422 26.2461 58.7686 26.4746 58.8037 26.7148C58.8389 26.9492 58.8857 27.1748 58.9443 27.3916C59.0088 27.6084 59.0879 27.8047 59.1816 27.9805C59.2812 28.1504 59.3984 28.2822 59.5332 28.376C59.6738 28.4639 59.835 28.5049 60.0166 28.499C60.2041 28.4873 60.4209 28.4053 60.667 28.2529C60.79 28.1768 60.8633 28.1064 60.8867 28.042C60.9102 27.9775 60.9189 27.9131 60.9131 27.8486C60.9072 27.7783 60.9014 27.708 60.8955 27.6377C60.8955 27.5674 60.9365 27.4824 61.0186 27.3828C61.165 27.3359 61.2764 27.3535 61.3525 27.4355C61.4287 27.5176 61.4697 27.6318 61.4756 27.7783C61.4873 27.9248 61.458 28.0859 61.3877 28.2617C61.3232 28.4316 61.2148 28.5811 61.0625 28.71C60.916 28.8389 60.7256 28.9326 60.4912 28.9912C60.2627 29.0439 59.9873 29.0234 59.665 28.9297ZM68.5068 28.7627C68.2725 28.6279 68.0879 28.4932 67.9531 28.3584C67.8242 28.2178 67.7012 28.083 67.584 27.9541C67.4668 27.8193 67.332 27.6934 67.1797 27.5762C67.0273 27.4531 66.8164 27.3447 66.5469 27.251C66.5059 27.3682 66.4736 27.5059 66.4502 27.6641C66.4268 27.8223 66.4062 27.9834 66.3887 28.1475C66.377 28.3057 66.3652 28.458 66.3535 28.6045C66.3477 28.7451 66.3389 28.8535 66.3271 28.9297C66.251 29.0234 66.1777 29.0645 66.1074 29.0527C66.0371 29.041 65.9727 29.0059 65.9141 28.9473C65.8613 28.8828 65.8145 28.8096 65.7734 28.7275C65.7383 28.6396 65.7178 28.5723 65.7119 28.5254C65.8467 28.209 65.9375 27.8896 65.9844 27.5674C66.0371 27.2451 66.0605 26.9141 66.0547 26.5742C66.0547 26.2344 66.0371 25.8828 66.002 25.5195C65.9668 25.1562 65.9375 24.7754 65.9141 24.377C65.9434 24.3301 65.9814 24.292 66.0283 24.2627C66.0811 24.2334 66.1367 24.2305 66.1953 24.2539C66.2715 24.166 66.3711 24.0693 66.4941 23.9639C66.6172 23.8525 66.749 23.7529 66.8896 23.665C67.0361 23.5713 67.1855 23.4951 67.3379 23.4365C67.4961 23.3779 67.6426 23.3545 67.7773 23.3662C67.9121 23.3721 68.0293 23.4219 68.1289 23.5156C68.2344 23.6094 68.3105 23.7617 68.3574 23.9727C68.4043 24.2773 68.3955 24.5615 68.3311 24.8252C68.2666 25.0889 68.1611 25.3408 68.0146 25.5811C67.874 25.8154 67.6953 26.0381 67.4785 26.249C67.2617 26.4541 67.0215 26.6533 66.7578 26.8467C66.7402 26.8818 66.7461 26.917 66.7754 26.9521C66.8105 26.9814 66.8516 27.0107 66.8984 27.04C66.9512 27.0635 67.0039 27.084 67.0566 27.1016C67.1094 27.1191 67.1475 27.1309 67.1709 27.1367C67.2881 27.2188 67.417 27.3301 67.5576 27.4707C67.6982 27.6055 67.8447 27.7461 67.9971 27.8926C68.1553 28.0332 68.3135 28.1621 68.4717 28.2793C68.6357 28.3965 68.7969 28.4727 68.9551 28.5078C69.1133 28.5371 69.2656 28.5137 69.4121 28.4375C69.5645 28.3613 69.708 28.2002 69.8428 27.9541H69.9834C70.0068 28.1299 69.9775 28.2939 69.8955 28.4463C69.8193 28.5928 69.708 28.707 69.5615 28.7891C69.4209 28.8711 69.2568 28.915 69.0693 28.9209C68.8818 28.9268 68.6943 28.874 68.5068 28.7627ZM66.4766 25.8711C66.4824 25.8945 66.4883 25.9385 66.4941 26.0029C66.5 26.0615 66.5059 26.126 66.5117 26.1963C66.5234 26.2607 66.5322 26.3223 66.5381 26.3809C66.5439 26.4395 66.5469 26.4805 66.5469 26.5039C66.7988 26.4043 67.0186 26.249 67.2061 26.0381C67.3936 25.8271 67.5459 25.6016 67.6631 25.3613C67.7803 25.1152 67.8564 24.8721 67.8916 24.6318C67.9326 24.3857 67.9326 24.1836 67.8916 24.0254C67.8506 23.8672 67.7627 23.7705 67.6279 23.7354C67.499 23.6943 67.3232 23.7529 67.1006 23.9111C66.8896 24.0635 66.7344 24.2129 66.6348 24.3594C66.541 24.5 66.4766 24.6494 66.4414 24.8076C66.4121 24.96 66.4062 25.124 66.4238 25.2998C66.4414 25.4697 66.459 25.6602 66.4766 25.8711ZM75.5381 29.0439C75.4854 29.0146 75.4121 28.9795 75.3184 28.9385C75.2305 28.8916 75.1367 28.8389 75.0371 28.7803C74.9375 28.7217 74.8408 28.6602 74.7471 28.5957C74.6592 28.5254 74.5859 28.4521 74.5273 28.376C74.4688 28.2939 74.4365 28.209 74.4307 28.1211C74.4248 28.0332 74.457 27.9424 74.5273 27.8486C74.5391 27.8369 74.5771 27.8691 74.6416 27.9453C74.7119 28.0156 74.7998 28.1035 74.9053 28.209C75.0107 28.3086 75.1309 28.4141 75.2656 28.5254C75.4004 28.6309 75.5381 28.7129 75.6787 28.7715C75.8193 28.8242 75.96 28.8418 76.1006 28.8242C76.2412 28.8008 76.3701 28.7129 76.4873 28.5605C76.5342 28.4961 76.5664 28.4229 76.584 28.3408C76.6074 28.2529 76.6162 28.165 76.6104 28.0771C76.6045 27.9893 76.5898 27.9043 76.5664 27.8223C76.5488 27.7344 76.5225 27.6553 76.4873 27.585C76.4111 27.4209 76.291 27.2539 76.127 27.084C75.9688 26.9141 75.7959 26.7412 75.6084 26.5654C75.4268 26.3896 75.248 26.2109 75.0723 26.0293C74.8965 25.8477 74.7588 25.6631 74.6592 25.4756C74.5596 25.2881 74.5098 25.1006 74.5098 24.9131C74.5156 24.7197 74.6035 24.5234 74.7734 24.3242C74.9082 24.1719 75.0752 24.0957 75.2744 24.0957C75.4795 24.0957 75.6787 24.1396 75.8721 24.2275C76.0713 24.3154 76.2441 24.4297 76.3906 24.5703C76.543 24.7051 76.6367 24.8369 76.6719 24.9658C76.6895 25.0186 76.6953 25.0771 76.6895 25.1416C76.6836 25.2002 76.666 25.25 76.6367 25.291C76.6074 25.332 76.5635 25.3613 76.5049 25.3789C76.4521 25.3906 76.3818 25.3789 76.2939 25.3438C76.1943 25.3086 76.1152 25.2324 76.0566 25.1152C76.0039 24.998 75.9453 24.8838 75.8809 24.7725C75.8223 24.6553 75.7432 24.5645 75.6436 24.5C75.5498 24.4297 75.4092 24.4238 75.2217 24.4824C75.0107 24.5527 74.8965 24.6611 74.8789 24.8076C74.8613 24.9482 74.9023 25.1123 75.002 25.2998C75.1074 25.4814 75.248 25.6748 75.4238 25.8799C75.6055 26.0791 75.7871 26.2695 75.9688 26.4512C76.1562 26.6328 76.3232 26.7969 76.4697 26.9434C76.6162 27.084 76.707 27.1865 76.7422 27.251C76.8125 27.3857 76.874 27.5557 76.9268 27.7607C76.9854 27.96 77.0059 28.1562 76.9883 28.3496C76.9707 28.543 76.9062 28.7129 76.7949 28.8594C76.6836 29 76.4961 29.0791 76.2324 29.0967C76.1973 29.1025 76.1475 29.1055 76.083 29.1055C76.0244 29.1113 75.9629 29.1143 75.8984 29.1143C75.834 29.1143 75.7666 29.1084 75.6963 29.0967C75.6318 29.085 75.5791 29.0674 75.5381 29.0439ZM83.6855 28.9297C83.4629 28.8359 83.293 28.7158 83.1758 28.5693C83.0645 28.4229 82.9824 28.2617 82.9297 28.0859C82.877 27.9102 82.8447 27.7227 82.833 27.5234C82.8213 27.3242 82.8066 27.1221 82.7891 26.917C82.6543 26.9404 82.5225 26.9521 82.3936 26.9521C82.2646 26.9463 82.1504 26.9346 82.0508 26.917C81.957 26.8936 81.8896 26.8643 81.8486 26.8291C81.8076 26.7881 81.8018 26.7471 81.8311 26.7061C81.8662 26.6592 81.9482 26.6123 82.0771 26.5654C82.2061 26.5186 82.3965 26.4746 82.6484 26.4336C82.6836 26.4336 82.7334 26.416 82.7979 26.3809C82.8682 26.3457 82.9092 26.3193 82.9209 26.3018C82.9619 26.2432 83 26.1436 83.0352 26.0029C83.0703 25.8564 83.1055 25.6953 83.1406 25.5195C83.1816 25.3438 83.2285 25.168 83.2812 24.9922C83.3398 24.8105 83.4102 24.6553 83.4922 24.5264C83.5801 24.3975 83.6826 24.3066 83.7998 24.2539C83.9229 24.2012 84.0723 24.2129 84.248 24.2891C84.2656 24.3008 84.2891 24.3242 84.3184 24.3594C84.3535 24.3887 84.3887 24.4209 84.4238 24.4561C84.459 24.4912 84.4912 24.5264 84.5205 24.5615C84.5557 24.5908 84.5791 24.6143 84.5908 24.6318C84.6143 24.9189 84.5967 25.1621 84.5381 25.3613C84.4795 25.5605 84.4004 25.7305 84.3008 25.8711C84.2012 26.0059 84.0898 26.1201 83.9668 26.2139C83.8438 26.3076 83.7266 26.3984 83.6152 26.4863C83.5039 26.5684 83.4072 26.6533 83.3252 26.7412C83.249 26.8291 83.208 26.9375 83.2021 27.0664C83.1904 27.2188 83.1846 27.3594 83.1846 27.4883C83.1846 27.6113 83.1992 27.7285 83.2285 27.8398C83.2578 27.9512 83.3076 28.0566 83.3779 28.1562C83.4482 28.2559 83.5508 28.3525 83.6855 28.4463C83.7852 28.5166 83.9082 28.5342 84.0547 28.499C84.2012 28.4639 84.3506 28.4023 84.5029 28.3145C84.6553 28.2266 84.8047 28.127 84.9512 28.0156C85.0977 27.9043 85.2236 27.8105 85.3291 27.7344C85.4346 27.6523 85.5107 27.5996 85.5576 27.5762C85.6045 27.5527 85.6045 27.5879 85.5576 27.6816C85.4756 27.875 85.3789 28.0684 85.2676 28.2617C85.1562 28.4551 85.0244 28.6191 84.8721 28.7539C84.7197 28.8887 84.5439 28.9766 84.3447 29.0176C84.1514 29.0645 83.9316 29.0352 83.6855 28.9297ZM83.4043 25.7393C83.3984 25.7686 83.3867 25.8271 83.3691 25.915C83.3516 26.0029 83.3428 26.0615 83.3428 26.0908C83.3486 26.0967 83.3574 26.0996 83.3691 26.0996C83.3867 26.0996 83.3984 26.0967 83.4043 26.0908C83.4219 26.0791 83.4482 26.0615 83.4834 26.0381C83.5186 26.0088 83.5537 25.9824 83.5889 25.959C83.624 25.9297 83.6562 25.9033 83.6855 25.8799C83.7207 25.8506 83.7441 25.8301 83.7559 25.8184C83.9316 25.6426 84.0547 25.4814 84.125 25.335C84.2012 25.1826 84.2393 25.0596 84.2393 24.9658C84.2393 24.8721 84.207 24.8105 84.1426 24.7812C84.084 24.7461 84.0107 24.7549 83.9229 24.8076C83.8408 24.8604 83.7529 24.9629 83.6592 25.1152C83.5654 25.2617 83.4805 25.4697 83.4043 25.7393ZM90.7432 28.8682C90.7197 28.7744 90.7021 28.6455 90.6904 28.4814C90.6787 28.3174 90.6729 28.1357 90.6729 27.9365C90.6729 27.7314 90.6729 27.5176 90.6729 27.2949C90.6787 27.0723 90.6846 26.8555 90.6904 26.6445C90.6963 26.4336 90.6963 26.2373 90.6904 26.0557C90.6904 25.874 90.6846 25.7246 90.6729 25.6074C90.667 25.5195 90.6582 25.3906 90.6465 25.2207C90.6406 25.0449 90.6318 24.8486 90.6201 24.6318C90.6084 24.415 90.5938 24.1865 90.5762 23.9463C90.5645 23.7061 90.5557 23.4775 90.5498 23.2607C90.5439 23.0381 90.541 22.8359 90.541 22.6543C90.541 22.4668 90.5469 22.3232 90.5586 22.2236C90.6465 22.1475 90.7168 22.168 90.7695 22.2852C90.8281 22.3965 90.8721 22.5605 90.9014 22.7773C90.9307 22.9883 90.9482 23.2285 90.9541 23.498C90.9658 23.7676 90.9717 24.0225 90.9717 24.2627C90.9717 24.5029 90.9688 24.7051 90.9629 24.8691C90.957 25.0332 90.9541 25.1182 90.9541 25.124C90.9834 25.6748 91.001 26.2197 91.0068 26.7588C91.0186 27.292 91.0479 27.8311 91.0947 28.376C91.1533 28.4873 91.1826 28.6074 91.1826 28.7363C91.1885 28.8594 91.1709 28.959 91.1299 29.0352C91.0947 29.1113 91.042 29.1436 90.9717 29.1318C90.9014 29.1201 90.8252 29.0322 90.7432 28.8682ZM97.3262 26.5039C97.1914 26.4863 97.0391 26.4951 96.8691 26.5303C96.6992 26.5596 96.5498 26.5977 96.4209 26.6445C96.3623 26.668 96.3037 26.6533 96.2451 26.6006C96.1924 26.5479 96.1543 26.4863 96.1309 26.416C96.1074 26.3398 96.1045 26.2695 96.1221 26.2051C96.1396 26.1406 96.1924 26.1025 96.2803 26.0908C96.3037 26.0908 96.3682 26.0938 96.4736 26.0996C96.5791 26.1055 96.6904 26.1084 96.8076 26.1084C96.9307 26.1025 97.042 26.0908 97.1416 26.0732C97.2471 26.0498 97.3086 26.0117 97.3262 25.959C97.3203 25.7129 97.3115 25.4492 97.2998 25.168C97.2881 24.8867 97.2822 24.6025 97.2822 24.3154C97.2822 24.0225 97.2939 23.7354 97.3174 23.4541C97.3467 23.167 97.3936 22.8916 97.458 22.6279C97.499 22.4756 97.5576 22.3701 97.6338 22.3115C97.7158 22.2529 97.8447 22.2441 98.0205 22.2852C98.1611 22.3145 98.3076 22.3877 98.46 22.5049C98.6123 22.6162 98.7529 22.748 98.8818 22.9004C99.0166 23.0527 99.1309 23.2168 99.2246 23.3926C99.3242 23.5625 99.3828 23.7236 99.4004 23.876C99.4062 23.9346 99.3799 23.9873 99.3213 24.0342C99.2686 24.0811 99.207 24.1016 99.1367 24.0957C99.0664 24.0898 98.999 24.0459 98.9346 23.9639C98.876 23.876 98.8467 23.7295 98.8467 23.5244C98.8467 23.5127 98.8379 23.4922 98.8203 23.4629C98.8027 23.4277 98.7881 23.4043 98.7764 23.3926L98.1523 22.7686C98.0352 22.7217 97.9443 22.7305 97.8799 22.7949C97.8213 22.8535 97.7773 22.9326 97.748 23.0322C97.7188 23.1318 97.6982 23.2373 97.6865 23.3486C97.6807 23.46 97.6748 23.5449 97.6689 23.6035C97.6514 23.8262 97.6338 24.0283 97.6162 24.21C97.6045 24.3916 97.5957 24.5703 97.5898 24.7461C97.5898 24.9219 97.5957 25.1006 97.6074 25.2822C97.6191 25.4639 97.6396 25.666 97.6689 25.8887C97.6924 25.8945 97.7744 25.8711 97.915 25.8184C98.0615 25.7598 98.2314 25.6982 98.4248 25.6338C98.624 25.5635 98.8291 25.499 99.04 25.4404C99.251 25.3818 99.4326 25.3496 99.585 25.3438C99.7432 25.3379 99.8545 25.3701 99.9189 25.4404C99.9893 25.5049 99.9775 25.6309 99.8838 25.8184C99.8486 25.8828 99.7959 25.915 99.7256 25.915C99.6553 25.9092 99.5938 25.9004 99.541 25.8887C99.5 25.9004 99.4297 25.9238 99.3301 25.959C99.2305 25.9883 99.125 26.0234 99.0137 26.0645C98.9082 26.0996 98.8057 26.1348 98.7061 26.1699C98.6064 26.1992 98.5391 26.2197 98.5039 26.2314C98.4863 26.2373 98.4482 26.2461 98.3896 26.2578C98.3369 26.2695 98.2783 26.2842 98.2139 26.3018C98.1553 26.3193 98.0967 26.334 98.0381 26.3457C97.9854 26.3574 97.9531 26.3662 97.9414 26.3721C97.9238 26.3779 97.9033 26.3838 97.8799 26.3896C97.8623 26.3896 97.8418 26.3955 97.8184 26.4072C97.7949 26.4189 97.7686 26.4277 97.7393 26.4336V28.9297C97.7393 28.9766 97.7158 29.0059 97.6689 29.0176C97.6279 29.0293 97.5811 29.0264 97.5283 29.0088C97.4814 28.9971 97.4346 28.9736 97.3877 28.9385C97.3467 28.8975 97.3262 28.8477 97.3262 28.7891V26.5039Z" fill="black"/>
    <path d="M151.06 20C150.963 20 150.818 19.9903 150.625 19.971C150.432 19.9323 150.2 19.9033 149.929 19.884L149.32 19.739C149.223 19.7197 149.146 19.7003 149.088 19.681C149.049 19.6423 149.04 19.6133 149.059 19.594C149.059 19.0913 149.03 18.4243 148.972 17.593C148.972 17.303 148.962 17.0517 148.943 16.839C148.924 16.607 148.904 16.4137 148.885 16.259L148.827 15.012C148.827 14.6833 148.808 14.2677 148.769 13.765L148.74 12.866C148.74 12.1313 148.73 11.561 148.711 11.155C148.692 10.749 148.682 9.89833 148.682 8.603C148.682 7.385 148.692 6.12833 148.711 4.833C148.73 3.53767 148.788 2.31 148.885 1.15C148.885 0.937333 149.117 0.763333 149.581 0.627999C149.871 0.589333 150.354 0.57 151.031 0.57C152.597 0.57 153.747 0.540999 154.482 0.482999C156.763 0.444333 158.484 0.425 159.644 0.425H160.92C162.505 0.463666 163.723 0.521666 164.574 0.598999C164.883 0.598999 165.106 0.966332 165.241 1.701C165.299 1.83633 165.367 2.18433 165.444 2.745C165.502 3.035 165.579 3.39267 165.676 3.818C165.695 3.934 165.695 4.05 165.676 4.166C165.676 4.26267 165.676 4.32067 165.676 4.34C165.657 4.53333 165.55 4.63 165.357 4.63C165.28 4.61067 165.164 4.601 165.009 4.601C164.197 4.601 163.201 4.66867 162.022 4.804L160.485 4.92C159.847 4.99733 159.344 5.04567 158.977 5.065C158.919 5.065 158.842 5.181 158.745 5.413C158.668 5.66433 158.581 6.24433 158.484 7.153L158.426 7.878C158.426 8.12933 158.455 8.29367 158.513 8.371C158.571 8.429 158.697 8.458 158.89 8.458H161.471C162.225 8.458 163.085 8.50633 164.052 8.603H164.4C164.651 8.661 164.806 8.75767 164.864 8.893C164.941 9.009 164.99 9.13467 165.009 9.27L165.125 11.851V11.938C165.125 12.2667 164.777 12.46 164.081 12.518C163.675 12.6147 162.902 12.663 161.761 12.663C160.775 12.663 160.137 12.6533 159.847 12.634C159.286 12.634 158.948 12.6437 158.832 12.663C158.619 12.721 158.484 12.837 158.426 13.011C158.368 13.1657 158.339 13.4363 158.339 13.823C158.339 14.0743 158.32 14.432 158.281 14.896C158.262 15.128 158.252 15.4953 158.252 15.998C159.509 15.998 160.437 15.9787 161.036 15.94C161.693 15.882 162.621 15.853 163.82 15.853C163.897 15.853 163.975 15.9207 164.052 16.056C164.149 16.2493 164.303 16.6843 164.516 17.361C164.632 17.7477 164.748 18.231 164.864 18.811C164.903 18.9463 164.922 19.0913 164.922 19.246C164.922 19.652 164.729 19.855 164.342 19.855C163.839 19.855 163.163 19.8743 162.312 19.913C161.867 19.9517 161.171 19.971 160.224 19.971C158.194 19.971 156.667 19.9807 155.642 20H151.06Z" fill="#FF0000"/>
    <path d="M51.08 20.319C50.2293 19.4877 49.5043 18.6467 48.905 17.796C48.4797 17.2353 47.8223 16.2397 46.933 14.809L46.44 14.026C46.4207 14.0067 46.4013 13.997 46.382 13.997C46.382 13.9777 46.382 13.968 46.382 13.968H46.237L46.121 14.026C46.1017 14.2773 46.092 14.954 46.092 16.056C46.092 16.7713 46.0533 17.6123 45.976 18.579L45.947 19.449C45.8697 19.6617 45.8213 19.768 45.802 19.768H45.599H45.512C43.3853 19.9227 41.8387 20 40.872 20H40.437H39.886C39.6733 20 39.5187 19.9903 39.422 19.971H39.219L38.32 19.681L38.262 19.478C38.2233 19.478 38.1943 19.4393 38.175 19.362C38.175 19.2847 38.175 19.2267 38.175 19.188C38.117 18.376 38.0687 17.7863 38.03 17.419C37.9527 16.375 37.9043 15.6113 37.885 15.128C37.8463 14.664 37.827 14.3643 37.827 14.229L37.682 12.634L37.653 11.764C37.6337 11.59 37.624 11.3483 37.624 11.039V10.778C37.6627 10.6813 37.682 10.5267 37.682 10.314V9.821C37.7013 9.74367 37.711 9.65667 37.711 9.56L37.682 9.328V9.038C37.682 8.90267 37.6627 8.79633 37.624 8.719V8.545L37.653 7.82C37.6723 7.68467 37.682 7.48167 37.682 7.211C37.7207 6.631 37.74 6.08 37.74 5.558V5.268C37.7207 5.21 37.711 5.08433 37.711 4.891V4.485V4.195C37.653 4.137 37.624 4.079 37.624 4.021C37.624 3.75033 37.8657 3.557 38.349 3.441C38.6003 3.36367 38.958 3.325 39.422 3.325C43.946 3.325 47.3293 3.47967 49.572 3.789C51.776 4.09833 53.3227 4.63 54.212 5.384C54.5987 5.75133 54.8693 6.18633 55.024 6.689C55.198 7.17233 55.285 7.75233 55.285 8.429C55.285 9.51167 54.9757 10.4203 54.357 11.155C53.951 11.561 53.4773 11.8993 52.936 12.17C53.052 12.46 53.3903 13.04 53.951 13.91C54.067 14.0453 54.1733 14.1903 54.27 14.345C54.386 14.4997 54.5213 14.664 54.676 14.838C55.0433 15.3407 55.4687 15.8917 55.952 16.491C55.9713 16.5683 56.0487 16.7327 56.184 16.984C56.2807 17.0227 56.329 17.071 56.329 17.129C56.3483 17.1677 56.3387 17.2257 56.3 17.303C56.1453 17.535 55.691 17.8733 54.937 18.318C54.8403 18.4147 54.7243 18.5113 54.589 18.608C54.2023 18.9173 53.6707 19.2363 52.994 19.565C52.3753 19.8937 51.8437 20.1257 51.399 20.261C51.225 20.3577 51.1187 20.377 51.08 20.319ZM45.802 10.111C46.0533 10.111 46.3917 10.0627 46.817 9.966C47.223 9.85 47.513 9.734 47.687 9.618C47.977 9.444 48.2283 9.25067 48.441 9.038C48.6537 8.78667 48.76 8.49667 48.76 8.168C48.76 7.62667 48.5957 7.19167 48.267 6.863C47.977 6.631 47.6193 6.515 47.194 6.515H45.947C45.947 6.76633 45.9277 7.16267 45.889 7.704L45.86 8.313C45.8213 8.69967 45.802 9.299 45.802 10.111ZM59.722 20.029C59.3547 20.029 59.2097 19.7003 59.287 19.043C59.287 18.811 59.3353 18.55 59.432 18.26C59.432 18.1247 59.4417 18.0183 59.461 17.941C59.4803 17.8443 59.49 17.767 59.49 17.709C59.9347 15.6017 60.4277 13.5233 60.969 11.474L62.941 3.76C62.941 3.72133 62.97 3.673 63.028 3.615C63.086 3.557 63.144 3.50867 63.202 3.47H63.405C63.637 3.47 63.8207 3.441 63.956 3.383C64.072 3.36367 64.275 3.354 64.565 3.354C65.029 3.354 65.377 3.36367 65.609 3.383C65.957 3.441 66.3147 3.47 66.682 3.47L68.19 3.441C68.3447 3.40233 68.5283 3.383 68.741 3.383L70.017 3.325H70.974C71.3413 3.325 71.699 3.33467 72.047 3.354H72.859C73.0523 3.37333 73.3327 3.383 73.7 3.383H74.802C74.86 3.383 74.918 3.39267 74.976 3.412C75.034 3.43133 75.0823 3.45067 75.121 3.47C75.1983 3.50867 75.295 3.528 75.411 3.528H75.672C75.8073 3.62467 75.875 3.72133 75.875 3.818L77.934 11.474C78.572 13.9293 79.0747 16.0077 79.442 17.709C79.442 17.8057 79.471 17.9893 79.529 18.26C79.6063 18.6467 79.645 18.956 79.645 19.188C79.645 19.3233 79.6257 19.507 79.587 19.739C79.4903 19.9323 79.355 20.029 79.181 20.029H78.862C78.6107 20.029 78.4173 20.0193 78.282 20H77.644H77.035H76.542C76.4067 20 76.3293 19.9903 76.31 19.971H74.715L74.686 19.913C74.6473 19.8743 74.5893 19.855 74.512 19.855L74.425 19.913C74.425 19.9517 74.4057 19.971 74.367 19.971H74.28H74.077C73.9803 19.9323 73.8063 19.913 73.555 19.913C73.091 19.8743 72.7043 19.855 72.395 19.855C72.1823 19.4103 71.931 18.434 71.641 16.926C71.235 16.984 70.771 17.013 70.249 17.013H69.495H68.77C68.6927 17.303 68.6443 17.5447 68.625 17.738C68.6057 17.8347 68.5283 18.1633 68.393 18.724C68.2577 19.2847 68.132 19.6617 68.016 19.855L67.842 19.913C67.784 19.9323 67.7357 19.9517 67.697 19.971C67.6583 19.971 67.639 19.971 67.639 19.971H67.581C67.465 19.971 67.3877 19.9517 67.349 19.913C67.2717 19.8743 67.2233 19.855 67.204 19.855L66.102 19.913H65.29C65.1933 19.9323 65.116 19.9517 65.058 19.971C65 19.971 64.9613 19.971 64.942 19.971H62.622H62.39C62.216 19.9903 61.8583 20 61.317 20H60.621C60.505 20.0193 60.3213 20.029 60.07 20.029H59.722ZM71.38 13.823C71.264 13.1657 71.1963 12.779 71.177 12.663L70.945 11.271C70.9063 11.0003 70.8677 10.7587 70.829 10.546C70.7903 10.314 70.7613 10.1013 70.742 9.908C70.684 9.676 70.6357 9.46333 70.597 9.27C70.5777 9.05733 70.5487 8.864 70.51 8.69C70.4907 8.574 70.4713 8.429 70.452 8.255C70.4327 8.06167 70.4037 7.92633 70.365 7.849L70.307 7.501C70.307 7.42367 70.2877 7.356 70.249 7.298L70.22 7.124C70.1813 7.24 70.162 7.298 70.162 7.298V7.414V7.501C70.162 7.52033 70.1523 7.559 70.133 7.617C70.1137 7.65567 70.0943 7.733 70.075 7.849C70.0557 7.94567 70.0363 8.07133 70.017 8.226C69.9977 8.36133 69.9687 8.516 69.93 8.69L69.727 9.879L69.495 11.213L69.408 11.851C69.3693 12.0057 69.3307 12.257 69.292 12.605C69.118 13.475 69.0407 13.8713 69.06 13.794H70.336C70.3553 13.7747 70.3843 13.7553 70.423 13.736C70.4617 13.6973 70.4907 13.678 70.51 13.678H70.597C70.6937 13.678 70.771 13.6877 70.829 13.707C70.9063 13.7263 70.974 13.7457 71.032 13.765C71.148 13.8037 71.264 13.823 71.38 13.823ZM91.4079 20.696C89.7066 20.696 88.3049 20.5413 87.2029 20.232C85.7336 19.826 84.5929 19.043 83.7809 17.883C82.8722 16.5877 82.4179 14.7027 82.4179 12.228C82.4179 10.72 82.6209 9.36667 83.0269 8.168C83.4329 6.95 84.0226 5.92533 84.7959 5.094C85.5692 4.282 86.4682 3.66333 87.4929 3.238C88.5176 2.81267 89.6292 2.6 90.8279 2.6C92.8386 2.6 94.9266 3.22833 97.0919 4.485L96.7149 7.733L96.0479 7.588C95.9706 7.56867 95.6709 7.501 95.1489 7.385C94.6269 7.269 94.1532 7.211 93.7279 7.211C92.8192 7.211 92.1426 7.52033 91.6979 8.139C91.1179 8.91233 90.8279 10.1593 90.8279 11.88C90.8279 13.2913 91.0309 14.3547 91.4369 15.07C91.8236 15.6693 92.3456 15.969 93.0029 15.969C93.4669 15.969 94.0082 15.8143 94.6269 15.505C95.2262 15.215 95.8062 14.8767 96.3669 14.49L96.6569 18.608C95.9802 19.246 95.1489 19.7487 94.1629 20.116C93.2736 20.5027 92.3552 20.696 91.4079 20.696ZM108.511 20.087H107.177H105.669H103.755C103.581 19.8163 103.465 19.3233 103.407 18.608C103.329 17.97 103.291 17.042 103.291 15.824L103.32 12.634C103.339 11.8607 103.349 10.633 103.349 8.951L103.262 8.864H100.391C99.9653 8.864 99.685 8.38067 99.5496 7.414C99.4723 6.892 99.4336 6.12833 99.4336 5.123V4.746C99.4723 4.61067 99.4916 4.398 99.4916 4.108V3.528L99.5206 3.296L99.6366 3.18L100.159 3.209H100.739C101.589 3.209 102.237 3.19933 102.682 3.18H104.567H105.089H106.075H107.322H108.569C108.82 3.19933 109.178 3.209 109.642 3.209H110.367C110.444 3.17033 110.57 3.151 110.744 3.151C110.879 3.11233 111.005 3.093 111.121 3.093C111.488 3.093 111.768 3.11233 111.962 3.151C112.348 3.18967 112.638 3.209 112.832 3.209L113.586 3.18H114.717C115.297 3.18 115.693 3.18967 115.906 3.209L116.312 3.238C116.331 3.25733 116.36 3.28633 116.399 3.325C116.437 3.34433 116.457 3.36367 116.457 3.383V8.313C116.457 8.429 116.389 8.55467 116.254 8.69C116.138 8.82533 116.022 8.91233 115.906 8.951C115.268 8.81567 114.436 8.748 113.412 8.748H112.31C112.02 8.748 111.826 9.11533 111.73 9.85C111.691 10.0627 111.672 10.372 111.672 10.778V11.648C111.672 12.0347 111.681 12.3247 111.701 12.518V13.33C111.701 14.1227 111.662 14.8573 111.585 15.534C111.546 16.0367 111.527 16.404 111.527 16.636C111.488 16.868 111.469 17.187 111.469 17.593C111.469 18.173 111.449 18.6563 111.411 19.043C111.391 19.6423 111.169 19.9613 110.744 20C110.28 20.058 110.009 20.087 109.932 20.087H108.511ZM120.12 20.377C119.772 20.377 119.55 20.029 119.453 19.333C119.395 19.043 119.366 18.782 119.366 18.55C119.366 18.2407 119.356 18.0473 119.337 17.97C119.318 17.4093 119.269 16.52 119.192 15.302L119.105 14.2C118.989 12.4987 118.931 11.242 118.931 10.43V3.383C118.931 3.22833 119.105 3.11233 119.453 3.035C119.646 2.977 119.917 2.948 120.265 2.948C120.497 2.948 120.748 2.96733 121.019 3.006C121.29 3.02533 121.493 3.035 121.628 3.035C121.918 3.07367 122.372 3.093 122.991 3.093L123.107 3.006H124.383C124.441 3.064 124.509 3.093 124.586 3.093H124.702C124.721 3.07367 124.77 3.064 124.847 3.064C124.886 3.04467 124.944 3.035 125.021 3.035C125.04 3.01567 125.06 3.006 125.079 3.006C125.098 3.006 125.108 3.006 125.108 3.006C125.166 3.006 125.234 3.02533 125.311 3.064C125.388 3.08333 125.446 3.093 125.485 3.093H127.631L127.718 8.081C127.718 8.10033 127.699 8.168 127.66 8.284C127.641 8.38067 127.621 8.516 127.602 8.69C127.544 9.386 127.515 9.937 127.515 10.343V15.998L127.428 17.1C127.37 17.5833 127.351 17.9797 127.37 18.289C127.37 18.695 127.351 19.0237 127.312 19.275C127.293 19.507 127.235 19.6907 127.138 19.826C127.022 19.9613 126.838 20.029 126.587 20.029L126.558 20L126.471 19.971C126.432 19.971 126.413 19.9807 126.413 20H126.268C126.152 20.0387 126.084 20.0677 126.065 20.087C125.968 20.087 125.746 20.058 125.398 20L124.992 19.971C124.895 19.971 124.837 20.0097 124.818 20.087H122.643H122.237L121.483 20.232L120.787 20.319L120.12 20.377ZM139.496 20.696C137.794 20.696 136.393 20.5413 135.291 20.232C133.821 19.826 132.681 19.043 131.869 17.883C130.96 16.5877 130.506 14.7027 130.506 12.228C130.506 10.72 130.709 9.36667 131.115 8.168C131.521 6.95 132.11 5.92533 132.884 5.094C133.657 4.282 134.556 3.66333 135.581 3.238C136.605 2.81267 137.717 2.6 138.916 2.6C140.926 2.6 143.014 3.22833 145.18 4.485L144.803 7.733L144.136 7.588C144.058 7.56867 143.759 7.501 143.237 7.385C142.715 7.269 142.241 7.211 141.816 7.211C140.907 7.211 140.23 7.52033 139.786 8.139C139.206 8.91233 138.916 10.1593 138.916 11.88C138.916 13.2913 139.119 14.3547 139.525 15.07C139.911 15.6693 140.433 15.969 141.091 15.969C141.555 15.969 142.096 15.8143 142.715 15.505C143.314 15.215 143.894 14.8767 144.455 14.49L144.745 18.608C144.068 19.246 143.237 19.7487 142.251 20.116C141.361 20.5027 140.443 20.696 139.496 20.696Z" fill="black"/>
    <path d="M2.131 33.9541C1.6108 33.9541 1.2742 33.6175 1.1212 32.9443C0.9682 32.6077 0.8917 31.9957 0.8917 31.1083C0.8917 28.4461 0.8611 26.0746 0.7999 23.9938C0.7081 20.995 0.6622 17.8279 0.6622 14.4925V4.3945C0.6622 4.1191 0.7846 3.859 1.0294 3.6142C1.3048 3.3388 1.5802 3.2011 1.8556 3.2011L7.1341 3.247C8.1133 3.2776 9.3985 3.2929 10.9897 3.2929C13.2847 3.2929 15.0595 3.2776 16.3141 3.247L18.0124 3.2011C19.8484 3.1399 21.3631 3.1093 22.5565 3.1093C24.4843 3.1093 26.3203 3.3847 28.0645 3.9355C30.1147 4.5475 31.7824 5.6032 33.0676 7.1026C34.5058 8.7244 35.2249 10.9123 35.2249 13.6663C35.2249 18.3175 34.0468 21.6835 31.6906 23.7643C29.6098 25.7227 26.5039 26.7019 22.3729 26.7019H16.0846C16.1152 27.4057 16.1305 28.1554 16.1305 28.951C16.1305 29.2264 16.1152 29.563 16.0846 29.9608C16.0846 30.328 16.0846 30.8329 16.0846 31.4755C16.0846 32.4853 15.8704 33.1279 15.442 33.4033C15.1054 33.6787 14.4781 33.8164 13.5601 33.8164C12.2137 33.8164 11.2804 33.8317 10.7602 33.8623C8.6488 33.8623 6.9658 33.8929 5.7112 33.9541H2.131ZM18.5632 21.1939C19.2058 21.1939 19.6801 20.5819 19.9861 19.3579C20.2309 18.5317 20.4145 17.3077 20.5369 15.6859C20.5981 14.7985 20.6287 13.804 20.6287 12.7024V12.1975C20.6287 11.7079 20.5522 10.9735 20.3992 9.9943C20.2768 9.4435 20.1391 9.0151 19.9861 8.7091C19.8331 8.3725 19.6342 8.0971 19.3894 7.8829C19.1446 7.6075 18.8692 7.4698 18.5632 7.4698C18.4102 7.4698 18.2725 7.531 18.1501 7.6534C18.0583 7.7758 17.9665 7.9288 17.8747 8.1124C17.5381 8.6632 17.2321 9.8872 16.9567 11.7844C16.8649 12.3352 16.7884 13.1614 16.7272 14.263C16.5742 15.946 16.4977 18.1951 16.4977 21.0103C16.4977 21.0103 16.513 21.0256 16.5436 21.0562C16.5742 21.0868 16.6354 21.1174 16.7272 21.148L17.278 21.1939H18.5632Z" fill="#00BF63"/>
    <path d="M104 27L160 27" stroke="#BF0000" stroke-width="0.5" stroke-linecap="round"/>
</svg>
